<svg id="Capa_1" data-name="Capa 1" xmlns="http://www.w3.org/2000/svg" viewBox="0 0 1697.67 1023.12"><defs><style>.cls-1{fill:#fcfcfc;}.cls-2{fill:#fff;}.cls-3{fill:#789bbe;}.cls-4{fill:#769abe;}.cls-5{fill:#f9f9f9;}.cls-6,.cls-7{fill:#005183;}.cls-7{font-size:65.04px;font-family:BerlinSansFBDemi-Bold, Berlin Sans FB Demi;font-weight:700;}</style></defs><title>LOGO CMO</title><ellipse class="cls-1" cx="847.09" cy="511.85" rx="763.9" ry="436.92"/><path class="cls-2" d="M1061.35,494.43c2.65,0,4.91,1.33,6.77,4a16.57,16.57,0,0,1,2.79,9.71,16.37,16.37,0,0,1-2.79,9.6q-2.79,4-6.77,4t-6.72-3.94a16.12,16.12,0,0,1-2.84-9.66,16.38,16.38,0,0,1,2.84-9.71C1056.52,495.76,1058.76,494.43,1061.35,494.43Z" transform="translate(-70.44 -23.88)"/><path class="cls-3" d="M708.81,544.77l2.33,1.46q-1.23,13.85-1.35,24.53,16.71-15.06,23.28-19.92T755.74,546a58,58,0,0,1,18.31,2.73,43.4,43.4,0,0,1,15.23,9,44.11,44.11,0,0,1,11.06,15.67,54.74,54.74,0,0,1,4,21.8,58.69,58.69,0,0,1-2.83,17.73,76.63,76.63,0,0,1-7.43,16.64q-4.61,7.65-7.37,10.14c-1.84,1.66-4,3.79-8.73,8.43-1,.95-15.36,10-15.36,10-3.52,2.51-8.61,3.15-10,3.88a30.93,30.93,0,0,1-7,2.19,48.46,48.46,0,0,1-10.44,1.09,55.48,55.48,0,0,1-25.43-6.44v25.87q0,2.67.49,17.19t1.05,16.94c.36,1.62-25.84,4.11-25.07,3.34a6.71,6.71,0,0,0,1.6-3.71q.43-2.53,1-16.27t.56-20.64v-93q0-6.32-.56-14.64a82.32,82.32,0,0,0-.92-9.65,3.69,3.69,0,0,0-1.78-2.19c-.94-.56-3-.85-6.33-.85L669.49,561l-1.1-1v-5.22l1-1Q692.83,551.08,708.81,544.77Zm1,93.15a53,53,0,0,0,14,9.9A40.55,40.55,0,0,0,742.23,652a37.79,37.79,0,0,0,21.07-6q9.15-5.94,14.19-17.42a62.8,62.8,0,0,0,5-25.45,49.52,49.52,0,0,0-4.48-21,34.12,34.12,0,0,0-13.88-15.3,38.52,38.52,0,0,0-20-5.58,36.46,36.46,0,0,0-12.65,2.24,39.58,39.58,0,0,0-11.49,6.62,33.09,33.09,0,0,0-7.68,8.32,15.13,15.13,0,0,0-2.46,6.56c-.08,1.74-.12,3.66-.12,5.77Z" transform="translate(-70.44 -23.88)"/><path class="cls-3" d="M822.94,606.34a67.46,67.46,0,0,1,6-27.87q6-13.41,20.95-23.2t35.45-9.77q25.78,0,42,16.09t16.22,41.35q0,27.81-18.61,45.78t-44.91,18a53.43,53.43,0,0,1-30.71-9.17,57.27,57.27,0,0,1-20-22.41A64.91,64.91,0,0,1,822.94,606.34ZM846.16,598a96.87,96.87,0,0,0,4.43,30.42q4.41,13.43,14,21.56a32.82,32.82,0,0,0,21.87,8.14q14.49,0,24-11.36t9.46-34.18q0-25.87-10.26-42.39t-29.55-16.51q-16,0-24.94,11.41T846.16,598Z" transform="translate(-70.44 -23.88)"/><path class="cls-3" d="M997.89,482.1l2.34,1.46q-1.37,14-1.36,56v76.14q0,2.67.5,17.19t1,16.94a7.1,7.1,0,0,0,1.66,3.52,5.18,5.18,0,0,0,2.7,1.4q1.61.3,13.27,1l1.11,1v5.1l-1,1.09q-15.36-1-29.61-1t-29.48,1l-1.1-1.09v-5.1l1.1-1q11.91-.74,13.45-1.09a5.74,5.74,0,0,0,2.71-1.52,6.53,6.53,0,0,0,1.59-3.52q.43-2.37,1-15.67t.56-20.1V551l-.49-25.74q-.37-13.49-.8-18.71t-1.17-6.19a4.61,4.61,0,0,0-2.58-1.46q-1.85-.48-14.87-.48l-1.1-1.1v-5.1l1-1.09Q981.79,488.42,997.89,482.1Z" transform="translate(-70.44 -23.88)"/><path class="cls-3" d="M1071,546.23l2.33,1.58q-1.35,15.9-1.35,40.43v27.45q0,2.67.49,17.19t1,16.94a7.09,7.09,0,0,0,1.65,3.52,5.17,5.17,0,0,0,2.71,1.4q1.59.3,13.27,1l1.1,1v5.1l-1,1.09q-15.36-1-29.61-1t-29.49,1l-1.1-1.09v-5.1l1.1-1q11.92-.74,13.45-1.09a5.7,5.7,0,0,0,2.71-1.52,6.46,6.46,0,0,0,1.6-3.52q.42-2.37,1-15.67t.55-20.1V590q0-4.86-.49-13.24c-.33-5.59-.59-9-.8-10.32a3.78,3.78,0,0,0-1.9-2.86c-1.07-.6-3.19-.91-6.39-.91l-10.32-.12-1.11-1v-5.22l1-1Q1054.9,552.54,1071,546.23Z" transform="translate(-70.44 -23.88)"/><path class="cls-3" d="M1078.08,565.66V562.5l1.24-1.21c11.13-2.84,13-4.5,19.82-6.93q0-31.7-1.07-36.92a191.81,191.81,0,0,0,30-9.35l4.25,2.43q-1.77,7.65-4.25,44.45,8.87.12,19.17.12c14,0-1.09.61,4.94.12l1.25.86-3.38,10.19-1.42,1.1c-6-.08,12.34-1,5-1q-9.95,0-25.56.11L1127,615.94q0,17.12,1.16,22.4a12.26,12.26,0,0,0,6.39,8.26q5.24,3,15.53,3a56.2,56.2,0,0,0,22-4.25l4.25,4.38q-4.24,2.06-20.41,12.14a62.29,62.29,0,0,1-18.82,2.92q-39.95,0-39.94-26.48a160.46,160.46,0,0,1,.71-16.51c.12-1.38.17-2.8.17-4.26v-50.4h-7.27c-5.33,0-4.26-.8-11.12-.48Z" transform="translate(-70.44 -23.88)"/><path class="cls-3" d="M1206.51,579.62l-4.79-1.21-1-1.22V562.14q21.85-16,42.51-16,14.12,0,23.46,5.23t13.51,13a38.23,38.23,0,0,1,4.18,18.28l-.61,24.41v36.19q0,7.41,1,9a5.26,5.26,0,0,0,2.4,2.12,20.6,20.6,0,0,0,5,.91l7,.61,1,1.09v4.86l-1,1q-9-.72-16.7-.73-7.38,0-17.7.73l-1.84-1.7.49-19.55-26.78,20.64A38.06,38.06,0,0,1,1222,665a37.46,37.46,0,0,1-16.89-3.53,25.35,25.35,0,0,1-10.82-9.83,29.55,29.55,0,0,1-3.74-15.3q0-17.85,11.3-27.87t61.67-17.07q0-18-8.1-25.32t-21.75-7.35a38.55,38.55,0,0,0-13,2.07q-5.84,2.07-6.7,3.34T1207.37,579Zm57,19.19q-34.4,5.72-42.87,12.27t-8.48,20.28q0,18.95,19,18.94,16.32,0,32.3-18.7Z" transform="translate(-70.44 -23.88)"/><path class="cls-3" d="M1348.28,546.23l2.34,1.58q-.73,8.13-1,21.37,9.84-8,18.68-16.27a21.59,21.59,0,0,1,4.85-3.41,40.64,40.64,0,0,1,7.56-2.3,48.1,48.1,0,0,1,10.81-1.22,45.56,45.56,0,0,1,18.12,3.77q8.79,3.76,13.27,8.93a28.53,28.53,0,0,1,6.2,12.2,74.19,74.19,0,0,1,1.73,17.36v21.38q0,2.05.61,30.24.24,11.53,2.58,13.72t15.23,2.19l1,1V662l-1,1q-15.6-1-21.13-1-3.2,0-17.93,1l-1.48-1.33q1.59-15.79,1.59-41.17V604.52q0-14.32-.67-20.64a25.11,25.11,0,0,0-4.12-11.48,23.15,23.15,0,0,0-9.21-8,30.8,30.8,0,0,0-13.76-2.85,40.82,40.82,0,0,0-10.93,1.27,34.75,34.75,0,0,0-10.2,5.22,39,39,0,0,0-8.36,7.41,15.39,15.39,0,0,0-3.25,6.44c-.37,2-.55,6.21-.55,12.69v21.13q0,2.67.49,17.19t1,16.94a7.1,7.1,0,0,0,1.66,3.52,5.18,5.18,0,0,0,2.7,1.4q1.6.3,13.27,1l1.11,1v5.1l-1,1.09q-15.36-1-29.61-1t-29.49,1l-1.11-1.09v-5.1l1.11-1q11.91-.74,13.45-1.09a5.7,5.7,0,0,0,2.71-1.52,6.39,6.39,0,0,0,1.59-3.52q.43-2.37,1-15.67t.55-20.1V590q0-4.86-.49-13.24t-.8-10.32a3.78,3.78,0,0,0-1.9-2.86c-1.07-.6-3.2-.91-6.39-.91l-10.33-.12-1.1-1v-5.22l1-1Q1332.19,552.54,1348.28,546.23Z" transform="translate(-70.44 -23.88)"/><path class="cls-3" d="M1478.76,579.62l-4.79-1.21-1-1.22V562.14q21.85-16,42.51-16,14.12,0,23.46,5.23t13.51,13a38.23,38.23,0,0,1,4.18,18.28l-.61,24.41v36.19q0,7.41,1,9a5.31,5.31,0,0,0,2.4,2.12,20.6,20.6,0,0,0,5,.91l7,.61,1,1.09v4.86l-1,1q-9-.72-16.71-.73-7.36,0-17.69.73l-1.85-1.7.49-19.55L1509,662.2a38.06,38.06,0,0,1-14.74,2.8,37.46,37.46,0,0,1-16.89-3.53,25.26,25.26,0,0,1-10.81-9.83,29.46,29.46,0,0,1-3.75-15.3q0-17.85,11.3-27.87t61.67-17.07q0-18-8.1-25.32t-21.75-7.35a38.55,38.55,0,0,0-13,2.07q-5.84,2.07-6.7,3.34T1479.62,579Zm57,19.19q-34.4,5.72-42.87,12.27t-8.48,20.28q0,18.95,19,18.94,16.33,0,32.3-18.7Z" transform="translate(-70.44 -23.88)"/><path class="cls-3" d="M777.36,511.83l-5.11,11.37q-16.59,10.59-29.59,13.74a99.44,99.44,0,0,1-23.22,3.16,90.57,90.57,0,0,1-36.3-7.42q-17.14-7.42-27.92-25.12t-10.77-42.64A100.55,100.55,0,0,1,648.6,435q4.14-13.34,8.69-19.82t15.4-14.37a101.73,101.73,0,0,1,23-12.64,71.19,71.19,0,0,1,26.16-4.74q19.14,0,33.75,8.93t20.5,22.82A74.88,74.88,0,0,1,782,444.7a90.8,90.8,0,0,1-.48,9.47l-1.75,1.74q-10.86,2.37-29.2,3.16t-24.25.79H675.08q.33,32.7,16.6,48.17t39.89,15.48A61.45,61.45,0,0,0,753,519.72a133.16,133.16,0,0,0,21.78-10.58ZM675.08,447.22q2.88.48,22.1,1.11t28.48.63q22.17,0,27-.79c.1-2.53.16-4.47.16-5.84q0-24.49-10.06-36.41T715.29,394q-19,0-29.59,13.42T675.08,447.22Z" transform="translate(-70.44 -23.88)"/><path class="cls-3" d="M800.17,411.06V407l1.12-1.58a228.39,228.39,0,0,0,24.25-10.27q0-41.24-1-48,16.42-5.68,27-12.16l3.83,3.16q-1.59,9.94-3.83,57.81,8,.17,17.23.16,18.83,0,27-.95l1.12,1.1-3,13.28-1.27,1.41q-8.14-.15-18-.15-8.94,0-23,.15l-.95,64.29q0,22.27,1,29.14a16.54,16.54,0,0,0,5.75,10.74c3.13,2.59,7.79,3.87,14,3.87a37.43,37.43,0,0,0,19.78-5.52l3.83,5.68q-3.83,2.7-18.35,15.8a40.39,40.39,0,0,1-16.91,3.79q-35.89,0-35.9-34.44,0-12.63.64-21.48c.11-1.79.16-3.63.16-5.52V411.68H818q-7.18,0-16.44.64Z" transform="translate(-70.44 -23.88)"/><path class="cls-3" d="M960.68,384.52l3,2.05q-1,9.17-1.44,32.54l12-15a91.07,91.07,0,0,1,10.45-11.46,32.94,32.94,0,0,1,10.61-6.24,36.13,36.13,0,0,1,12.44-2.21,31.46,31.46,0,0,1,13.25,2.85l1.11,2.2q-2.55,21-2.87,37h-7.18q-6.37-14.54-20.58-14.54a25.75,25.75,0,0,0-17.23,6.24,30.19,30.19,0,0,0-9.81,15.64Q962,443,962,457.33v17.53q0,4.75.64,23.22T964,519.41a8.07,8.07,0,0,0,2.23,4.18,8.2,8.2,0,0,0,4,1.82q2.48.48,22.74,1.58l1.43,1.26v6.64l-1.43,1.42q-21.23-1.26-44.36-1.26-18.34,0-38.29,1.26l-1.44-1.42v-6.64l1.44-1.26q15.48-.94,17.47-1.42a7.28,7.28,0,0,0,3.51-2,8.4,8.4,0,0,0,2.07-4.58q.57-3.07,1.28-20.37t.72-26.15V441.38q0-6.31-.64-17.22t-1-13.42a4.91,4.91,0,0,0-2.47-3.71q-2.07-1.18-8.3-1.19l-13.4-.16L908,404.42v-6.79l1.27-1.26Q939.78,392.73,960.68,384.52Z" transform="translate(-70.44 -23.88)"/><path class="cls-3" d="M1039.34,462.7a87.79,87.79,0,0,1,7.81-36.25q7.81-17.44,27.21-30.16t46-12.72q33.51,0,54.57,20.93T1196,458.28q0,36.17-24.17,59.55t-58.31,23.38q-22.35,0-39.89-11.93t-25.93-29.14A84.36,84.36,0,0,1,1039.34,462.7Zm30.15-10.89q0,22.11,5.74,39.56t18.19,28a42.63,42.63,0,0,0,28.4,10.58q18.83,0,31.11-14.77t12.29-44.46q0-33.64-13.33-55.13t-38.36-21.48q-20.74,0-32.39,14.85T1069.49,451.81Z" transform="translate(-70.44 -23.88)"/><path class="cls-4" d="M639.48,696.17q0,12.42,7.88,19.17,5.77,4.92,22.06,8c5.25,1,8.32,1.78,9.19,2.2a2.08,2.08,0,0,1,1.32,1.94,2.33,2.33,0,0,1-1.32,2.07,6.6,6.6,0,0,1-3.41.78L595,732.72s.45-26.33.45-35.3l5.81-309.26-75.54,114c-4.42,4.37-16.2,16.64-20.79,15.73-10.69,2.12-84.24-77.31-84.24-77.31l2.45,283.26H443a9.11,9.11,0,0,1,3.94.87,2.44,2.44,0,0,1,0,4.73,9.11,9.11,0,0,1-3.94.87H304.24l.06-6.47V347.2H270.16a13.23,13.23,0,0,1-5.26-.91c-1.39-.6-2.1-1.42-2.1-2.46,0-.86.71-1.6,2.1-2.2a13.23,13.23,0,0,1,5.26-.91H413l94.06,142.73L612.59,353l-11.52-2.2-19.41-1.51.31-8.53h57.76l-.25,6.48Z" transform="translate(-70.44 -23.88)"/><path class="cls-5" d="M410.32,651.31Q416,661.89,416,677.65q0,20.37-13.24,32.61T368,722.5q-23.12,0-37.37-13.78t-14.25-34.93q0-13.57,4-22.48h12a45.34,45.34,0,0,0-5.77,22.62q0,16.44,11.08,26.64t29.64,10.21q17.61,0,28.06-9.54t10.45-25q0-14.37-6.45-24.88Z" transform="translate(-70.44 -23.88)"/><path class="cls-5" d="M414.35,622.43v10.91H312.46V622.43Z" transform="translate(-70.44 -23.88)"/><path class="cls-5" d="M310.45,579.58l22,17.43v8.46l-22-14.85Zm103.9,9.85v10.91H345.53V589.43Z" transform="translate(-70.44 -23.88)"/><path class="cls-5" d="M414.35,510.78V521.7H375.1q-21.92,0-21.91,15.83a17.08,17.08,0,0,0,6.22,13.54q6.21,5.35,15.69,5.36h39.25v10.91H345.53V556.43H357v-.27q-13-7.71-13-22.36,0-11.17,7.29-17.09t21.07-5.93Z" transform="translate(-70.44 -23.88)"/><path class="cls-5" d="M328.06,484.64a7,7,0,0,1-7.13,7.05,7,7,0,0,1-5.14-2.06,6.84,6.84,0,0,1-2.05-5,7,7,0,0,1,2.05-5.09,7.18,7.18,0,0,1,12.27,5.09Zm86.29-5.33v10.92H345.53V479.31Z" transform="translate(-70.44 -23.88)"/><path class="cls-5" d="M411.19,410.78A35.23,35.23,0,0,1,416,429.42q0,14.56-9.58,23.51t-24.83,8.95q-17,0-27.32-9.64t-10.31-25.76a35.55,35.55,0,0,1,3.36-15.83h11.29a27.54,27.54,0,0,0-5.38,16.24A21.84,21.84,0,0,0,360.75,444q7.56,6.68,19.86,6.69,12.09,0,19.09-6.29t7-16.87a27.2,27.2,0,0,0-6-16.77Z" transform="translate(-70.44 -23.88)"/><path class="cls-5" d="M414.35,345.51v10.92H403.59v.26q12.38,7.13,12.37,21,0,10.17-5.44,15.93t-14.45,5.76q-19.29,0-22.45-22.49l-2.89-20.42q-17.53,0-17.54,14a33.29,33.29,0,0,0,8.47,22.22H350.37a41.88,41.88,0,0,1-6.45-23.15q0-24,25.67-24Zm-34.82,10.92,2.29,16.43q1.08,7.58,3.8,11.44t9.64,3.86a10.55,10.55,0,0,0,8.23-3.56q3.19-3.56,3.2-9.48a17.45,17.45,0,0,0-5.75-13.41q-5.74-5.28-14.55-5.28Z" transform="translate(-70.44 -23.88)"/><path class="cls-4" d="M919.28,23.88c-468.8,0-848.84,229-848.84,511.56S450.48,1047,919.28,1047s848.83-229,848.83-511.56S1388.08,23.88,919.28,23.88Zm-.69,1003.75c-456.7,0-826.93-220.36-826.93-492.19S461.89,43.24,918.59,43.24s826.93,220.37,826.93,492.2S1375.29,1027.63,918.59,1027.63Z" transform="translate(-70.44 -23.88)"/><path class="cls-6" d="M918.93,67.33C477.76,67.33,120.12,277,120.12,535.72s357.64,468.4,798.81,468.4,798.81-209.71,798.81-468.4S1360.1,67.33,918.93,67.33Zm-1.4,905.32c-421.89,0-763.9-195.62-763.9-436.93S495.64,98.8,917.53,98.8s763.9,195.62,763.9,436.92S1339.42,972.65,917.53,972.65Z" transform="translate(-70.44 -23.88)"/><text class="cls-7" transform="translate(826.08 698.28)">CMO IPS S.A.S</text></svg>