<?xml version="1.0" encoding="utf-8"?>
<!-- Generator: Adobe Illustrator 16.0.3, SVG Export Plug-In . SVG Version: 6.00 Build 0)  -->
<!DOCTYPE svg PUBLIC "-//W3C//DTD SVG 1.1//EN" "http://www.w3.org/Graphics/SVG/1.1/DTD/svg11.dtd">
<svg version="1.1" id="Capa_1" xmlns="http://www.w3.org/2000/svg" xmlns:xlink="http://www.w3.org/1999/xlink" x="0px" y="0px"
	 width="140.833px" height="99.581px" viewBox="0 0 140.833 99.581" enable-background="new 0 0 140.833 99.581"
	 xml:space="preserve">
<g>
	<g>
		<defs>
			<rect id="SVGID_1_" x="3.346" y="16.266" width="134.337" height="75.528"/>
		</defs>
		<clipPath id="SVGID_2_">
			<use xlink:href="#SVGID_1_"  overflow="visible"/>
		</clipPath>
		<path clip-path="url(#SVGID_2_)" fill="#FDFDFD" d="M124.646,54.954c0,17.131-24.281,31.02-54.232,31.02
			c-29.953,0-54.234-13.889-54.234-31.02c0-17.133,24.281-31.02,54.234-31.02C100.365,23.934,124.646,37.82,124.646,54.954"/>
		<path clip-path="url(#SVGID_2_)" fill="#FFFFFF" d="M80.625,52.02c0.188,0,0.348,0.096,0.48,0.285s0.197,0.42,0.197,0.69
			c0,0.266-0.064,0.492-0.197,0.682s-0.293,0.285-0.48,0.285c-0.184,0-0.344-0.094-0.479-0.281
			c-0.135-0.186-0.199-0.414-0.199-0.686c0-0.27,0.064-0.5,0.199-0.69S80.441,52.02,80.625,52.02"/>
		<path clip-path="url(#SVGID_2_)" fill="#799BBE" d="M55.595,55.594l0.166,0.104c-0.059,0.656-0.09,1.236-0.096,1.742
			c0.789-0.713,1.34-1.184,1.652-1.414c0.311-0.23,0.848-0.346,1.609-0.346c0.477,0,0.91,0.064,1.299,0.195
			c0.391,0.129,0.75,0.342,1.082,0.637c0.332,0.297,0.594,0.668,0.785,1.113s0.287,0.961,0.287,1.547
			c0,0.414-0.066,0.834-0.199,1.26c-0.135,0.426-0.311,0.818-0.527,1.182c-0.219,0.361-0.393,0.602-0.523,0.719
			s-0.287,0.27-0.621,0.6c-0.068,0.068-1.092,0.707-1.092,0.707c-0.25,0.178-0.607,0.225-0.709,0.275
			c-0.098,0.053-0.264,0.104-0.496,0.156c-0.234,0.051-0.48,0.078-0.742,0.078c-0.605,0-1.207-0.154-1.805-0.459v1.838
			c0,0.127,0.012,0.533,0.033,1.219c0.023,0.688,0.049,1.088,0.076,1.203c0.023,0.115-1.836,0.291-1.781,0.238
			c0.057-0.055,0.094-0.143,0.115-0.264c0.02-0.121,0.043-0.506,0.068-1.156c0.027-0.648,0.041-1.137,0.041-1.465v-6.605
			c0-0.299-0.014-0.645-0.041-1.037c-0.025-0.395-0.047-0.623-0.064-0.688c-0.018-0.063-0.061-0.113-0.127-0.154
			c-0.066-0.039-0.217-0.061-0.449-0.061l-0.732-0.008l-0.078-0.068v-0.371l0.068-0.07C53.906,56.11,54.839,55.893,55.595,55.594
			 M55.666,62.208c0.268,0.271,0.598,0.506,0.994,0.703c0.395,0.199,0.832,0.297,1.309,0.297c0.563,0,1.063-0.141,1.494-0.422
			c0.434-0.281,0.77-0.695,1.008-1.238s0.357-1.145,0.357-1.805c0-0.535-0.105-1.033-0.316-1.492
			c-0.215-0.459-0.543-0.822-0.986-1.086c-0.445-0.266-0.918-0.396-1.418-0.396c-0.309,0-0.607,0.053-0.898,0.158
			c-0.291,0.107-0.563,0.264-0.816,0.471c-0.252,0.205-0.434,0.404-0.545,0.59c-0.111,0.188-0.168,0.342-0.174,0.467
			c-0.006,0.123-0.008,0.26-0.008,0.408V62.208z"/>
		<path clip-path="url(#SVGID_2_)" fill="#799BBE" d="M63.697,59.967c0-0.686,0.145-1.344,0.428-1.98
			c0.285-0.635,0.781-1.184,1.488-1.646s1.545-0.693,2.516-0.693c1.223,0,2.215,0.381,2.984,1.143c0.766,0.762,1.15,1.74,1.15,2.936
			c0,1.316-0.439,2.4-1.32,3.25C70.062,63.827,69,64.25,67.753,64.25c-0.814,0-1.541-0.217-2.182-0.65
			c-0.639-0.434-1.109-0.965-1.416-1.592C63.851,61.383,63.697,60.702,63.697,59.967 M65.347,59.372c0,0.805,0.104,1.523,0.313,2.16
			c0.211,0.635,0.541,1.145,0.994,1.529c0.455,0.385,0.973,0.578,1.553,0.578c0.688,0,1.254-0.268,1.701-0.807
			c0.447-0.537,0.672-1.346,0.672-2.426c0-1.225-0.244-2.229-0.729-3.01c-0.486-0.781-1.184-1.172-2.098-1.172
			c-0.756,0-1.346,0.27-1.771,0.811C65.558,57.575,65.347,58.354,65.347,59.372"/>
		<path clip-path="url(#SVGID_2_)" fill="#799BBE" d="M76.119,51.145l0.166,0.104c-0.064,0.662-0.096,1.987-0.096,3.975v5.406
			c0,0.127,0.01,0.533,0.035,1.221c0.021,0.688,0.047,1.088,0.074,1.203c0.025,0.115,0.064,0.197,0.117,0.25
			c0.051,0.051,0.115,0.084,0.191,0.1c0.076,0.014,0.391,0.037,0.941,0.072l0.08,0.068v0.363l-0.07,0.076
			c-0.729-0.045-1.428-0.068-2.102-0.068c-0.67,0-1.367,0.023-2.094,0.068l-0.08-0.076v-0.363l0.08-0.068
			c0.563-0.035,0.883-0.061,0.955-0.078c0.072-0.016,0.137-0.053,0.191-0.107s0.094-0.137,0.113-0.25
			c0.021-0.111,0.045-0.482,0.07-1.111c0.025-0.631,0.039-1.105,0.039-1.428v-4.467l-0.035-1.828
			c-0.018-0.637-0.037-1.078-0.057-1.326c-0.02-0.249-0.049-0.395-0.082-0.44c-0.037-0.047-0.098-0.082-0.184-0.105
			c-0.088-0.021-0.439-0.033-1.057-0.033l-0.078-0.078v-0.361l0.07-0.078C74.421,51.656,75.357,51.445,76.119,51.145"/>
		<path clip-path="url(#SVGID_2_)" fill="#799BBE" d="M81.308,55.698l0.166,0.113c-0.064,0.752-0.096,1.709-0.096,2.869v1.949
			c0,0.127,0.014,0.533,0.035,1.221c0.023,0.688,0.049,1.088,0.074,1.203s0.064,0.197,0.117,0.25c0.053,0.051,0.117,0.084,0.191,0.1
			c0.076,0.014,0.391,0.037,0.943,0.072l0.078,0.068v0.363l-0.07,0.076c-0.729-0.045-1.428-0.068-2.102-0.068
			c-0.668,0-1.367,0.023-2.094,0.068l-0.078-0.076v-0.363l0.078-0.068c0.564-0.035,0.883-0.061,0.955-0.078
			c0.072-0.016,0.137-0.053,0.193-0.107c0.055-0.055,0.092-0.137,0.111-0.25c0.021-0.111,0.043-0.482,0.07-1.111
			c0.027-0.631,0.039-1.105,0.039-1.428v-1.699c0-0.229-0.01-0.543-0.035-0.939c-0.023-0.396-0.041-0.641-0.055-0.732
			c-0.018-0.092-0.063-0.16-0.137-0.203c-0.076-0.043-0.227-0.064-0.453-0.064l-0.732-0.008l-0.08-0.068v-0.371l0.072-0.07
			C79.611,56.213,80.546,55.997,81.308,55.698"/>
		<path clip-path="url(#SVGID_2_)" fill="#799BBE" d="M81.812,57.079v-0.225l0.088-0.086c0.791-0.203,0.92-0.32,1.406-0.492
			c0-1.5-0.025-2.373-0.074-2.621c0.865-0.207,1.574-0.428,2.129-0.664l0.303,0.172c-0.084,0.363-0.186,1.416-0.303,3.156
			c0.42,0.006,0.873,0.01,1.361,0.01c0.99,0-0.078,0.041,0.35,0.008l0.09,0.061l-0.24,0.725l-0.102,0.076
			c-0.428-0.006,0.877-0.068,0.355-0.068c-0.469,0-1.076,0.004-1.814,0.01l-0.074,3.508c0,0.811,0.025,1.342,0.08,1.592
			c0.055,0.248,0.207,0.443,0.453,0.586c0.248,0.141,0.615,0.211,1.104,0.211c0.564,0,1.084-0.1,1.563-0.303l0.303,0.311
			c-0.201,0.098-0.684,0.387-1.449,0.863c-0.436,0.137-0.883,0.207-1.336,0.207c-1.891,0-2.836-0.627-2.836-1.881
			c0-0.459,0.018-0.85,0.051-1.172c0.008-0.098,0.014-0.199,0.014-0.301v-3.58h-0.518c-0.379,0-0.303-0.057-0.789-0.033
			L81.812,57.079z"/>
		<path clip-path="url(#SVGID_2_)" fill="#799BBE" d="M90.929,58.069l-0.34-0.086l-0.07-0.086v-1.068
			c1.035-0.76,2.041-1.139,3.02-1.139c0.668,0,1.223,0.123,1.664,0.371c0.443,0.246,0.762,0.555,0.959,0.926
			c0.199,0.371,0.299,0.805,0.299,1.299l-0.045,1.732v2.568c0,0.352,0.025,0.564,0.074,0.639s0.105,0.125,0.17,0.15
			c0.064,0.027,0.184,0.047,0.357,0.064l0.498,0.045l0.068,0.076v0.346l-0.068,0.068c-0.426-0.035-0.822-0.051-1.186-0.051
			c-0.35,0-0.77,0.016-1.258,0.051l-0.131-0.121l0.035-1.387l-1.902,1.465c-0.318,0.131-0.668,0.197-1.045,0.197
			c-0.465,0-0.865-0.082-1.199-0.248c-0.334-0.168-0.592-0.4-0.768-0.699c-0.178-0.299-0.268-0.662-0.268-1.086
			c0-0.846,0.27-1.506,0.803-1.979c0.535-0.475,1.996-0.879,4.379-1.213c0-0.85-0.191-1.449-0.574-1.797
			c-0.385-0.348-0.898-0.521-1.545-0.521c-0.338,0-0.645,0.049-0.92,0.146s-0.436,0.178-0.477,0.236
			c-0.041,0.061-0.197,0.412-0.471,1.057L90.929,58.069z M94.976,59.432c-1.629,0.27-2.643,0.559-3.043,0.869
			c-0.402,0.311-0.604,0.791-0.604,1.441c0,0.896,0.451,1.344,1.354,1.344c0.773,0,1.537-0.441,2.293-1.328V59.432z"/>
		<path clip-path="url(#SVGID_2_)" fill="#799BBE" d="M100.994,55.698l0.166,0.113c-0.035,0.385-0.059,0.891-0.068,1.518
			c0.465-0.381,0.906-0.766,1.326-1.156c0.121-0.109,0.236-0.189,0.344-0.242c0.107-0.051,0.287-0.105,0.537-0.164
			c0.25-0.057,0.504-0.086,0.768-0.086c0.439,0,0.869,0.09,1.285,0.268c0.416,0.18,0.73,0.391,0.943,0.635
			c0.211,0.244,0.357,0.531,0.439,0.865c0.08,0.334,0.121,0.744,0.121,1.232v1.52c0,0.098,0.016,0.813,0.043,2.146
			c0.014,0.545,0.074,0.871,0.186,0.975c0.109,0.102,0.471,0.154,1.082,0.154l0.068,0.068v0.371l-0.068,0.068
			c-0.74-0.045-1.24-0.068-1.5-0.068c-0.152,0-0.578,0.023-1.275,0.068l-0.104-0.094c0.074-0.748,0.113-1.723,0.113-2.924v-1.129
			c0-0.678-0.018-1.166-0.049-1.465s-0.129-0.57-0.291-0.816c-0.164-0.242-0.383-0.434-0.654-0.568
			c-0.273-0.135-0.6-0.201-0.979-0.201c-0.301,0-0.561,0.029-0.775,0.09s-0.457,0.184-0.725,0.369
			c-0.266,0.188-0.465,0.363-0.592,0.527c-0.129,0.164-0.205,0.316-0.232,0.457c-0.025,0.141-0.039,0.441-0.039,0.9v1.5
			c0,0.127,0.012,0.533,0.035,1.221s0.047,1.088,0.074,1.203s0.064,0.197,0.117,0.25c0.053,0.051,0.117,0.084,0.193,0.1
			c0.074,0.014,0.389,0.037,0.941,0.072l0.078,0.068v0.363l-0.07,0.076c-0.727-0.045-1.428-0.068-2.102-0.068
			c-0.668,0-1.367,0.023-2.092,0.068l-0.08-0.076v-0.363l0.08-0.068c0.563-0.035,0.883-0.061,0.955-0.078
			c0.07-0.016,0.135-0.053,0.191-0.107c0.055-0.055,0.092-0.137,0.111-0.25c0.021-0.111,0.045-0.482,0.07-1.111
			c0.027-0.631,0.041-1.105,0.041-1.428v-1.699c0-0.229-0.014-0.543-0.035-0.939c-0.023-0.396-0.043-0.641-0.059-0.732
			c-0.014-0.092-0.059-0.16-0.135-0.203c-0.074-0.043-0.227-0.064-0.453-0.064l-0.732-0.008l-0.078-0.068v-0.371l0.07-0.07
			C99.296,56.213,100.234,55.997,100.994,55.698"/>
		<path clip-path="url(#SVGID_2_)" fill="#799BBE" d="M110.257,58.069l-0.34-0.086l-0.068-0.086v-1.068
			c1.035-0.76,2.039-1.139,3.018-1.139c0.668,0,1.223,0.123,1.664,0.371c0.441,0.246,0.764,0.555,0.961,0.926
			s0.297,0.805,0.297,1.299l-0.043,1.732v2.568c0,0.352,0.023,0.564,0.072,0.639c0.051,0.074,0.105,0.125,0.17,0.15
			c0.064,0.027,0.184,0.047,0.359,0.064l0.496,0.045l0.068,0.076v0.346l-0.068,0.068c-0.426-0.035-0.818-0.051-1.188-0.051
			c-0.348,0-0.768,0.016-1.256,0.051l-0.131-0.121l0.035-1.387l-1.9,1.465c-0.32,0.131-0.668,0.197-1.047,0.197
			c-0.465,0-0.865-0.082-1.199-0.248c-0.334-0.168-0.59-0.4-0.77-0.699c-0.176-0.299-0.264-0.662-0.264-1.086
			c0-0.846,0.266-1.506,0.803-1.979c0.535-0.475,1.992-0.879,4.377-1.213c0-0.85-0.191-1.449-0.576-1.797
			c-0.381-0.348-0.896-0.521-1.541-0.521c-0.338,0-0.646,0.049-0.922,0.146s-0.434,0.178-0.475,0.236
			c-0.041,0.061-0.199,0.412-0.471,1.057L110.257,58.069z M114.304,59.432c-1.627,0.27-2.643,0.559-3.043,0.869
			s-0.602,0.791-0.602,1.441c0,0.896,0.449,1.344,1.352,1.344c0.771,0,1.539-0.441,2.293-1.328V59.432z"/>
		<path clip-path="url(#SVGID_2_)" fill="#799BBE" d="M60.462,53.256l-0.363,0.807c-0.785,0.502-1.486,0.826-2.102,0.977
			c-0.615,0.148-1.164,0.223-1.648,0.223c-0.906,0-1.766-0.176-2.578-0.527c-0.809-0.35-1.471-0.943-1.98-1.781
			c-0.51-0.838-0.764-1.846-0.764-3.028c0-0.785,0.098-1.494,0.293-2.125c0.197-0.633,0.402-1.102,0.619-1.408
			c0.213-0.307,0.578-0.646,1.092-1.021c0.514-0.371,1.059-0.672,1.631-0.896c0.574-0.223,1.193-0.336,1.857-0.336
			c0.906,0,1.705,0.211,2.396,0.633c0.691,0.424,1.176,0.963,1.457,1.621c0.277,0.658,0.418,1.357,0.418,2.098
			c0,0.23-0.012,0.455-0.033,0.672l-0.127,0.123c-0.514,0.113-1.203,0.188-2.072,0.225c-0.867,0.037-1.441,0.057-1.721,0.057h-3.637
			c0.014,1.547,0.408,2.688,1.178,3.42c0.77,0.732,1.715,1.1,2.832,1.1c0.527,0,1.037-0.09,1.523-0.27s1.004-0.43,1.545-0.752
			L60.462,53.256z M53.201,48.668c0.137,0.023,0.658,0.051,1.57,0.078c0.908,0.031,1.582,0.047,2.02,0.047
			c1.051,0,1.689-0.02,1.916-0.057c0.006-0.18,0.012-0.318,0.012-0.414c0-1.16-0.238-2.02-0.715-2.586
			c-0.475-0.564-1.125-0.846-1.947-0.846c-0.9,0-1.6,0.316-2.102,0.953C53.453,46.479,53.201,47.42,53.201,48.668"/>
		<path clip-path="url(#SVGID_2_)" fill="#799BBE" d="M62.082,46.102v-0.293l0.078-0.111c0.711-0.262,1.285-0.504,1.723-0.729
			c0-1.951-0.021-3.088-0.068-3.41c0.777-0.27,1.416-0.557,1.916-0.863L66,40.92c-0.074,0.471-0.166,1.84-0.27,4.105
			c0.377,0.008,0.783,0.012,1.223,0.012c0.891,0,1.527-0.023,1.914-0.068l0.078,0.078l-0.215,0.941l-0.09,0.102
			c-0.387-0.008-0.813-0.01-1.281-0.01c-0.422,0-0.965,0.002-1.629,0.01l-0.07,4.564c0,1.055,0.025,1.744,0.074,2.068
			c0.049,0.325,0.186,0.581,0.408,0.764s0.553,0.273,0.99,0.273c0.506,0,0.975-0.131,1.404-0.393l0.273,0.404
			c-0.182,0.127-0.617,0.5-1.303,1.121c-0.393,0.18-0.795,0.27-1.201,0.27c-1.699,0-2.549-0.814-2.549-2.446
			c0-0.598,0.016-1.107,0.045-1.523c0.01-0.129,0.012-0.258,0.012-0.393v-4.654h-0.465c-0.34,0-0.729,0.014-1.166,0.045
			L62.082,46.102z"/>
		<path clip-path="url(#SVGID_2_)" fill="#799BBE" d="M73.476,44.217l0.217,0.146c-0.047,0.434-0.08,1.203-0.104,2.309l0.85-1.064
			c0.279-0.352,0.527-0.623,0.742-0.813s0.467-0.338,0.754-0.443c0.285-0.104,0.582-0.156,0.883-0.156
			c0.332,0,0.646,0.066,0.941,0.201l0.078,0.156c-0.121,0.996-0.188,1.869-0.203,2.625h-0.51c-0.303-0.688-0.791-1.031-1.461-1.031
			c-0.469,0-0.877,0.146-1.225,0.443c-0.348,0.295-0.58,0.664-0.695,1.109c-0.117,0.445-0.176,1.008-0.176,1.688v1.244
			c0,0.225,0.016,0.775,0.045,1.648c0.029,0.875,0.061,1.381,0.096,1.514c0.035,0.135,0.086,0.234,0.16,0.297
			c0.07,0.064,0.166,0.107,0.281,0.131c0.117,0.021,0.656,0.059,1.615,0.111l0.102,0.09v0.471l-0.102,0.102
			c-1.006-0.061-2.055-0.09-3.148-0.09c-0.869,0-1.775,0.029-2.721,0.09l-0.102-0.102v-0.471l0.102-0.09
			c0.734-0.045,1.146-0.078,1.242-0.102c0.094-0.021,0.176-0.068,0.248-0.141c0.072-0.07,0.121-0.178,0.148-0.324
			c0.025-0.146,0.055-0.627,0.092-1.448c0.031-0.818,0.049-1.436,0.049-1.855v-2.209c0-0.299-0.016-0.707-0.045-1.223
			s-0.055-0.834-0.074-0.951c-0.018-0.121-0.078-0.209-0.176-0.266c-0.098-0.055-0.293-0.084-0.588-0.084l-0.953-0.012l-0.102-0.09
			v-0.48l0.092-0.09C71.271,44.887,72.488,44.605,73.476,44.217"/>
		<path clip-path="url(#SVGID_2_)" fill="#799BBE" d="M79.06,49.768c0-0.889,0.186-1.746,0.557-2.572
			c0.369-0.826,1.014-1.541,1.932-2.143c0.916-0.602,2.006-0.902,3.266-0.902c1.586,0,2.879,0.494,3.873,1.484
			c1,0.992,1.496,2.264,1.496,3.82c0,1.711-0.572,3.121-1.717,4.227c-1.143,1.105-2.523,1.658-4.137,1.658
			c-1.059,0-2.004-0.281-2.834-0.846s-1.443-1.254-1.84-2.069C79.259,51.609,79.06,50.725,79.06,49.768 M81.201,48.994
			c0,1.047,0.137,1.982,0.408,2.809s0.703,1.491,1.291,1.991c0.59,0.502,1.262,0.752,2.016,0.752c0.893,0,1.629-0.35,2.209-1.049
			c0.582-0.7,0.873-1.752,0.873-3.157c0-1.594-0.314-2.896-0.947-3.914C86.421,45.41,85.513,44.9,84.33,44.9
			c-0.984,0-1.748,0.352-2.301,1.055C81.478,46.658,81.201,47.672,81.201,48.994"/>
		<path clip-path="url(#SVGID_2_)" fill="#779BBE" d="M50.673,66.342c0,0.59,0.186,1.043,0.559,1.363
			c0.275,0.232,0.797,0.422,1.566,0.568c0.373,0.074,0.59,0.127,0.652,0.156c0.064,0.031,0.094,0.076,0.094,0.139
			c0,0.061-0.029,0.109-0.094,0.146c-0.063,0.037-0.143,0.055-0.242,0.055l-5.693,0.168c0,0,0.033-1.869,0.033-2.506l0.412-21.956
			l-5.363,8.096c-0.314,0.311-1.15,1.182-1.477,1.118c-0.76,0.15-5.982-5.489-5.982-5.489l0.176,20.11h1.408
			c0.102,0,0.193,0.021,0.281,0.063c0.086,0.041,0.131,0.098,0.131,0.168s-0.045,0.127-0.131,0.168
			c-0.088,0.041-0.18,0.061-0.281,0.061h-9.85l0.004-0.459V41.568h-2.424c-0.15,0-0.275-0.021-0.373-0.064
			c-0.1-0.043-0.15-0.102-0.15-0.176c0-0.061,0.051-0.113,0.15-0.156c0.098-0.043,0.223-0.064,0.373-0.064h10.143l6.679,10.135
			l7.488-9.266l-0.818-0.156l-1.377-0.107l0.021-0.605h0.824h0.684h0.836h0.535h1.223l-0.018,0.461V66.342z"/>
		<path clip-path="url(#SVGID_2_)" fill="#FAFAFA" d="M34.404,63.159c0.266,0.5,0.398,1.123,0.398,1.869
			c0,0.965-0.313,1.736-0.939,2.316c-0.625,0.578-1.447,0.869-2.467,0.869c-1.094,0-1.979-0.326-2.652-0.979
			s-1.012-1.479-1.012-2.48c0-0.641,0.094-1.174,0.281-1.596h0.854c-0.271,0.484-0.408,1.02-0.408,1.605
			c0,0.777,0.26,1.408,0.785,1.893c0.525,0.482,1.227,0.725,2.105,0.725c0.834,0,1.496-0.227,1.992-0.678
			c0.494-0.451,0.742-1.045,0.742-1.779c0-0.68-0.152-1.268-0.459-1.766H34.404z"/>
		<rect x="27.455" y="61.108" clip-path="url(#SVGID_2_)" fill="#FAFAFA" width="7.234" height="0.775"/>
		<path clip-path="url(#SVGID_2_)" fill="#FAFAFA" d="M27.314,58.067l1.564,1.236v0.6l-1.564-1.053V58.067z M34.689,59.54h-4.885
			v-0.773h4.885V59.54z"/>
		<path clip-path="url(#SVGID_2_)" fill="#FAFAFA" d="M34.689,53.182v0.775h-2.785c-1.037,0-1.557,0.375-1.557,1.123
			c0,0.387,0.146,0.707,0.441,0.961s0.664,0.381,1.115,0.381h2.785v0.775h-4.885v-0.775h0.811v-0.02
			c-0.619-0.363-0.928-0.893-0.928-1.586c0-0.529,0.174-0.934,0.52-1.213c0.344-0.281,0.842-0.422,1.496-0.422H34.689z"/>
		<path clip-path="url(#SVGID_2_)" fill="#FAFAFA" d="M28.563,51.324c0,0.141-0.047,0.258-0.143,0.355s-0.217,0.146-0.363,0.146
			s-0.268-0.049-0.363-0.146c-0.098-0.098-0.146-0.215-0.146-0.355s0.049-0.262,0.146-0.361c0.096-0.098,0.217-0.148,0.363-0.148
			c0.141,0,0.26,0.051,0.359,0.148C28.514,51.063,28.563,51.184,28.563,51.324 M34.689,51.723h-4.885v-0.775h4.885V51.723z"/>
		<path clip-path="url(#SVGID_2_)" fill="#FAFAFA" d="M34.465,46.082c0.227,0.371,0.338,0.813,0.338,1.322
			c0,0.689-0.227,1.246-0.68,1.67c-0.451,0.424-1.041,0.637-1.762,0.637c-0.805,0-1.451-0.23-1.939-0.686
			c-0.488-0.457-0.734-1.066-0.734-1.828c0-0.426,0.082-0.801,0.24-1.125h0.801c-0.254,0.359-0.381,0.742-0.381,1.152
			c0,0.494,0.18,0.9,0.535,1.217c0.359,0.316,0.83,0.475,1.41,0.475c0.572,0,1.025-0.148,1.357-0.445
			c0.33-0.299,0.494-0.697,0.494-1.199c0-0.422-0.141-0.818-0.424-1.189H34.465z"/>
		<path clip-path="url(#SVGID_2_)" fill="#FAFAFA" d="M34.689,41.449v0.773h-0.764v0.02c0.586,0.336,0.877,0.832,0.877,1.488
			c0,0.48-0.129,0.859-0.385,1.131c-0.258,0.271-0.6,0.408-1.027,0.408c-0.912,0-1.443-0.531-1.592-1.598l-0.205-1.449
			c-0.832,0-1.246,0.332-1.246,0.996c0,0.584,0.201,1.109,0.602,1.578h-0.803c-0.305-0.475-0.459-1.023-0.459-1.643
			c0-1.139,0.609-1.705,1.824-1.705H34.689z M32.217,42.223l0.162,1.168c0.053,0.357,0.143,0.629,0.271,0.813
			c0.127,0.182,0.357,0.273,0.684,0.273c0.238,0,0.434-0.084,0.584-0.254c0.152-0.168,0.227-0.393,0.227-0.672
			c0-0.385-0.135-0.701-0.406-0.953c-0.271-0.25-0.617-0.375-1.033-0.375H32.217z"/>
		<path clip-path="url(#SVGID_2_)" fill="#779BBE" d="M70.539,18.615c-33.285,0-60.265,16.26-60.265,36.317
			c0,20.059,26.98,36.318,60.265,36.318c33.281,0,60.262-16.26,60.262-36.318C130.8,34.875,103.82,18.615,70.539,18.615
			 M70.488,89.875c-32.423,0-58.708-15.645-58.708-34.943c0-19.299,26.285-34.944,58.708-34.944
			c32.424,0,58.709,15.645,58.709,34.944C129.197,74.231,102.912,89.875,70.488,89.875"/>
		<path clip-path="url(#SVGID_2_)" fill="#025284" d="M70.511,21.699c-31.32,0-56.71,14.889-56.71,33.254
			c0,18.365,25.391,33.254,56.71,33.254c31.322,0,56.713-14.889,56.713-33.254C127.224,36.588,101.833,21.699,70.511,21.699
			 M70.414,85.973c-29.953,0-54.234-13.889-54.234-31.02c0-17.133,24.281-31.02,54.234-31.02c29.951,0,54.232,13.887,54.232,31.02
			C124.646,72.084,100.365,85.973,70.414,85.973"/>
	</g>
	<g>
		<path fill="#025284" d="M66.552,67.752c0,0.121-0.029,0.25-0.088,0.391c-0.063,0.143-0.154,0.279-0.283,0.416
			c-0.129,0.135-0.289,0.246-0.488,0.33s-0.432,0.127-0.695,0.127c-0.201,0-0.383-0.02-0.547-0.057
			c-0.164-0.039-0.313-0.098-0.445-0.178c-0.135-0.08-0.258-0.186-0.369-0.318c-0.102-0.119-0.188-0.252-0.258-0.4
			c-0.07-0.146-0.123-0.305-0.16-0.473c-0.035-0.168-0.051-0.344-0.051-0.533c0-0.305,0.043-0.578,0.133-0.82
			c0.088-0.242,0.215-0.449,0.381-0.621s0.361-0.301,0.582-0.393c0.225-0.09,0.461-0.135,0.713-0.135
			c0.309,0,0.582,0.063,0.822,0.184c0.24,0.123,0.424,0.275,0.553,0.455c0.125,0.182,0.189,0.352,0.189,0.512
			c0,0.09-0.029,0.166-0.092,0.234c-0.064,0.066-0.139,0.1-0.227,0.1c-0.098,0-0.172-0.023-0.221-0.068
			c-0.049-0.049-0.104-0.129-0.164-0.242c-0.102-0.188-0.217-0.328-0.354-0.422S65.181,65.7,64.982,65.7
			c-0.316,0-0.568,0.121-0.756,0.361c-0.188,0.238-0.279,0.58-0.279,1.021c0,0.297,0.041,0.541,0.123,0.738
			c0.082,0.195,0.201,0.342,0.354,0.439c0.152,0.096,0.33,0.145,0.531,0.145c0.225,0,0.41-0.055,0.563-0.164
			c0.152-0.111,0.268-0.271,0.346-0.484c0.033-0.1,0.074-0.182,0.121-0.244c0.049-0.063,0.127-0.094,0.234-0.094
			c0.092,0,0.17,0.031,0.234,0.094C66.519,67.577,66.552,67.657,66.552,67.752z"/>
		<path fill="#025284" d="M68.525,68.377l-0.607-2.418v2.621c0,0.145-0.033,0.254-0.1,0.326c-0.063,0.072-0.15,0.109-0.256,0.109
			c-0.104,0-0.188-0.035-0.254-0.107s-0.098-0.182-0.098-0.328v-3.006c0-0.164,0.043-0.275,0.129-0.334s0.203-0.088,0.35-0.088
			h0.238c0.143,0,0.246,0.014,0.313,0.039c0.064,0.027,0.111,0.074,0.145,0.141c0.029,0.068,0.066,0.178,0.107,0.328l0.551,2.08
			l0.551-2.08c0.039-0.15,0.074-0.26,0.105-0.328c0.031-0.066,0.078-0.113,0.145-0.141c0.064-0.025,0.168-0.039,0.313-0.039h0.236
			c0.148,0,0.264,0.029,0.35,0.088c0.088,0.059,0.131,0.17,0.131,0.334v3.006c0,0.145-0.033,0.254-0.098,0.326
			s-0.152,0.109-0.26,0.109c-0.102,0-0.186-0.037-0.252-0.109c-0.064-0.072-0.098-0.182-0.098-0.326v-2.621l-0.609,2.418
			c-0.039,0.158-0.07,0.273-0.096,0.346c-0.025,0.074-0.072,0.143-0.141,0.201c-0.066,0.061-0.16,0.092-0.277,0.092
			c-0.092,0-0.168-0.02-0.229-0.059c-0.063-0.039-0.111-0.088-0.145-0.148c-0.035-0.061-0.063-0.127-0.082-0.201
			C68.566,68.534,68.546,68.458,68.525,68.377z"/>
		<path fill="#025284" d="M73.333,65.088c0.393,0,0.73,0.08,1.014,0.24s0.496,0.387,0.641,0.682
			c0.146,0.293,0.219,0.639,0.219,1.037c0,0.295-0.041,0.561-0.119,0.801c-0.08,0.238-0.197,0.447-0.357,0.625
			c-0.16,0.176-0.354,0.311-0.586,0.402c-0.23,0.094-0.496,0.141-0.795,0.141c-0.297,0-0.564-0.049-0.799-0.145
			s-0.432-0.23-0.588-0.404c-0.156-0.176-0.275-0.385-0.355-0.631c-0.082-0.244-0.121-0.51-0.121-0.795
			c0-0.291,0.041-0.559,0.127-0.803c0.084-0.242,0.205-0.451,0.363-0.621c0.16-0.172,0.354-0.303,0.58-0.393
			C72.785,65.133,73.042,65.088,73.333,65.088z M74.427,67.042c0-0.277-0.045-0.518-0.135-0.723
			c-0.09-0.203-0.219-0.357-0.385-0.463c-0.166-0.104-0.357-0.156-0.574-0.156c-0.154,0-0.297,0.029-0.426,0.088
			c-0.131,0.057-0.242,0.143-0.338,0.252c-0.094,0.111-0.168,0.252-0.223,0.424c-0.055,0.17-0.08,0.365-0.08,0.578
			c0,0.217,0.025,0.412,0.08,0.586s0.131,0.318,0.23,0.434c0.102,0.115,0.215,0.201,0.344,0.258c0.127,0.057,0.27,0.086,0.422,0.086
			c0.197,0,0.379-0.049,0.543-0.148c0.166-0.098,0.297-0.25,0.395-0.455S74.427,67.342,74.427,67.042z"/>
		<path fill="#025284" d="M77.222,68.547v-2.992c0-0.154,0.035-0.271,0.105-0.35c0.072-0.078,0.164-0.117,0.275-0.117
			c0.115,0,0.209,0.039,0.279,0.115c0.072,0.078,0.107,0.193,0.107,0.352v2.992c0,0.156-0.035,0.273-0.107,0.352
			c-0.07,0.078-0.164,0.117-0.279,0.117c-0.111,0-0.201-0.039-0.275-0.117C77.257,68.819,77.222,68.702,77.222,68.547z"/>
		<path fill="#025284" d="M80.324,67.471h-0.703v1.076c0,0.152-0.037,0.27-0.109,0.35c-0.072,0.078-0.164,0.119-0.275,0.119
			c-0.115,0-0.209-0.039-0.279-0.117c-0.07-0.08-0.105-0.195-0.105-0.348v-2.926c0-0.17,0.037-0.291,0.115-0.363
			s0.201-0.109,0.373-0.109h0.984c0.291,0,0.518,0.023,0.674,0.068c0.156,0.043,0.291,0.115,0.402,0.215
			c0.113,0.1,0.201,0.223,0.258,0.367c0.059,0.146,0.09,0.309,0.09,0.49c0,0.387-0.121,0.68-0.357,0.879
			C81.15,67.372,80.796,67.471,80.324,67.471z M80.138,65.731h-0.518v1.16h0.518c0.182,0,0.334-0.018,0.455-0.057
			c0.121-0.037,0.213-0.1,0.279-0.186c0.063-0.088,0.094-0.199,0.094-0.34c0-0.168-0.049-0.305-0.146-0.408
			C80.71,65.788,80.482,65.731,80.138,65.731z"/>
		<path fill="#025284" d="M85.275,67.811c0,0.23-0.061,0.436-0.178,0.619s-0.291,0.326-0.52,0.43
			c-0.227,0.104-0.496,0.156-0.811,0.156c-0.375,0-0.684-0.072-0.928-0.213c-0.172-0.102-0.313-0.238-0.42-0.408
			s-0.162-0.334-0.162-0.496c0-0.092,0.031-0.174,0.096-0.24c0.066-0.064,0.148-0.1,0.25-0.1c0.08,0,0.148,0.027,0.205,0.078
			c0.055,0.053,0.104,0.129,0.143,0.23c0.049,0.121,0.102,0.223,0.156,0.303c0.057,0.082,0.137,0.148,0.238,0.201
			s0.234,0.08,0.4,0.08c0.23,0,0.414-0.053,0.557-0.16c0.143-0.105,0.213-0.238,0.213-0.396c0-0.127-0.037-0.229-0.115-0.307
			c-0.076-0.08-0.176-0.141-0.297-0.18c-0.121-0.043-0.285-0.086-0.488-0.133c-0.273-0.064-0.5-0.139-0.686-0.225
			c-0.184-0.086-0.33-0.201-0.438-0.35s-0.162-0.332-0.162-0.551c0-0.209,0.057-0.395,0.17-0.557
			c0.115-0.162,0.281-0.287,0.494-0.375c0.217-0.086,0.473-0.131,0.764-0.131c0.232,0,0.434,0.029,0.604,0.088
			c0.17,0.057,0.311,0.135,0.424,0.23s0.195,0.195,0.246,0.301c0.053,0.105,0.078,0.209,0.078,0.309
			c0,0.092-0.031,0.174-0.098,0.248c-0.064,0.074-0.145,0.109-0.242,0.109c-0.088,0-0.154-0.021-0.199-0.066
			c-0.047-0.043-0.098-0.115-0.15-0.217c-0.068-0.143-0.15-0.254-0.248-0.334s-0.252-0.121-0.467-0.121
			c-0.199,0-0.359,0.043-0.48,0.131s-0.182,0.191-0.182,0.314c0,0.076,0.02,0.143,0.063,0.197c0.041,0.055,0.098,0.102,0.17,0.143
			c0.072,0.039,0.146,0.07,0.221,0.094c0.072,0.021,0.195,0.055,0.367,0.098c0.215,0.051,0.408,0.105,0.582,0.166
			s0.32,0.135,0.441,0.221c0.123,0.086,0.217,0.195,0.287,0.326C85.242,67.458,85.275,67.62,85.275,67.811z"/>
		<path fill="#025284" d="M90.138,67.811c0,0.23-0.059,0.436-0.176,0.619c-0.119,0.184-0.291,0.326-0.52,0.43
			s-0.498,0.156-0.813,0.156c-0.373,0-0.682-0.072-0.926-0.213c-0.174-0.102-0.313-0.238-0.422-0.408
			c-0.107-0.17-0.16-0.334-0.16-0.496c0-0.092,0.031-0.174,0.098-0.24c0.063-0.064,0.146-0.1,0.246-0.1
			c0.082,0,0.15,0.027,0.205,0.078c0.057,0.053,0.104,0.129,0.145,0.23c0.049,0.121,0.1,0.223,0.156,0.303
			c0.057,0.082,0.135,0.148,0.236,0.201s0.238,0.08,0.402,0.08c0.229,0,0.414-0.053,0.555-0.16c0.145-0.105,0.215-0.238,0.215-0.396
			c0-0.127-0.039-0.229-0.115-0.307c-0.076-0.08-0.176-0.141-0.299-0.18c-0.121-0.043-0.285-0.086-0.486-0.133
			c-0.273-0.064-0.502-0.139-0.686-0.225s-0.33-0.201-0.439-0.35c-0.107-0.148-0.16-0.332-0.16-0.551
			c0-0.209,0.057-0.395,0.17-0.557c0.115-0.162,0.279-0.287,0.496-0.375c0.215-0.086,0.469-0.131,0.76-0.131
			c0.234,0,0.436,0.029,0.605,0.088c0.17,0.057,0.313,0.135,0.424,0.23c0.113,0.096,0.193,0.195,0.244,0.301
			c0.053,0.105,0.08,0.209,0.08,0.309c0,0.092-0.033,0.174-0.1,0.248c-0.063,0.074-0.143,0.109-0.24,0.109
			c-0.088,0-0.156-0.021-0.201-0.066c-0.045-0.043-0.096-0.115-0.148-0.217c-0.07-0.143-0.152-0.254-0.248-0.334
			c-0.098-0.08-0.254-0.121-0.469-0.121c-0.197,0-0.357,0.043-0.479,0.131c-0.123,0.088-0.184,0.191-0.184,0.314
			c0,0.076,0.02,0.143,0.063,0.197s0.098,0.102,0.172,0.143c0.072,0.039,0.145,0.07,0.219,0.094
			c0.076,0.021,0.197,0.055,0.369,0.098c0.213,0.051,0.408,0.105,0.582,0.166s0.32,0.135,0.441,0.221s0.217,0.195,0.285,0.326
			C90.105,67.458,90.138,67.62,90.138,67.811z"/>
		<path fill="#025284" d="M91.009,69.016c-0.105,0-0.199-0.035-0.277-0.104c-0.076-0.07-0.115-0.166-0.115-0.291
			c0-0.105,0.037-0.195,0.111-0.271c0.072-0.076,0.164-0.113,0.273-0.113s0.203,0.037,0.279,0.111
			c0.078,0.076,0.115,0.168,0.115,0.273c0,0.123-0.037,0.219-0.115,0.289C91.205,68.981,91.113,69.016,91.009,69.016z"/>
		<path fill="#025284" d="M94.679,68.522l-0.18-0.477h-1.543l-0.184,0.486c-0.07,0.189-0.131,0.318-0.18,0.385
			c-0.051,0.066-0.131,0.1-0.248,0.1c-0.096,0-0.182-0.035-0.254-0.105c-0.076-0.072-0.113-0.152-0.113-0.242
			c0-0.051,0.008-0.105,0.027-0.16c0.018-0.055,0.045-0.133,0.086-0.23l0.971-2.467c0.025-0.07,0.061-0.154,0.098-0.254
			c0.041-0.1,0.082-0.182,0.125-0.248c0.045-0.066,0.104-0.119,0.176-0.16c0.068-0.039,0.158-0.061,0.264-0.061
			c0.107,0,0.197,0.021,0.268,0.061c0.072,0.041,0.131,0.094,0.174,0.156c0.045,0.064,0.082,0.135,0.111,0.207
			c0.031,0.074,0.068,0.172,0.115,0.295l0.992,2.449c0.078,0.188,0.115,0.322,0.115,0.406c0,0.088-0.033,0.17-0.109,0.242
			c-0.072,0.074-0.162,0.111-0.266,0.111c-0.059,0-0.111-0.012-0.154-0.033s-0.08-0.051-0.109-0.088s-0.061-0.094-0.094-0.172
			C94.734,68.647,94.705,68.581,94.679,68.522z M93.158,67.467h1.135l-0.572-1.566L93.158,67.467z"/>
		<path fill="#025284" d="M96.484,69.016c-0.105,0-0.197-0.035-0.275-0.104c-0.078-0.07-0.117-0.166-0.117-0.291
			c0-0.105,0.037-0.195,0.111-0.271c0.076-0.076,0.168-0.113,0.275-0.113c0.109,0,0.201,0.037,0.277,0.111
			c0.078,0.076,0.117,0.168,0.117,0.273c0,0.123-0.039,0.219-0.117,0.289C96.679,68.981,96.589,69.016,96.484,69.016z"/>
		<path fill="#025284" d="M100.613,67.811c0,0.23-0.061,0.436-0.178,0.619c-0.119,0.184-0.291,0.326-0.52,0.43
			s-0.5,0.156-0.811,0.156c-0.375,0-0.684-0.072-0.928-0.213c-0.172-0.102-0.313-0.238-0.42-0.408
			c-0.109-0.17-0.164-0.334-0.164-0.496c0-0.092,0.033-0.174,0.098-0.24c0.066-0.064,0.146-0.1,0.248-0.1
			c0.08,0,0.15,0.027,0.205,0.078c0.057,0.053,0.105,0.129,0.145,0.23c0.049,0.121,0.1,0.223,0.156,0.303
			c0.057,0.082,0.137,0.148,0.238,0.201s0.234,0.08,0.4,0.08c0.229,0,0.414-0.053,0.557-0.16c0.143-0.105,0.213-0.238,0.213-0.396
			c0-0.127-0.039-0.229-0.115-0.307c-0.078-0.08-0.176-0.141-0.297-0.18c-0.123-0.043-0.287-0.086-0.488-0.133
			c-0.273-0.064-0.502-0.139-0.686-0.225c-0.186-0.086-0.33-0.201-0.439-0.35c-0.107-0.148-0.16-0.332-0.16-0.551
			c0-0.209,0.057-0.395,0.17-0.557c0.115-0.162,0.279-0.287,0.496-0.375c0.215-0.086,0.469-0.131,0.76-0.131
			c0.234,0,0.436,0.029,0.605,0.088c0.17,0.057,0.313,0.135,0.424,0.23c0.113,0.096,0.195,0.195,0.246,0.301
			s0.078,0.209,0.078,0.309c0,0.092-0.033,0.174-0.098,0.248s-0.145,0.109-0.242,0.109c-0.088,0-0.156-0.021-0.201-0.066
			c-0.045-0.043-0.096-0.115-0.15-0.217c-0.068-0.143-0.15-0.254-0.248-0.334c-0.096-0.08-0.25-0.121-0.465-0.121
			c-0.199,0-0.359,0.043-0.48,0.131s-0.184,0.191-0.184,0.314c0,0.076,0.021,0.143,0.063,0.197s0.1,0.102,0.17,0.143
			c0.074,0.039,0.148,0.07,0.221,0.094c0.076,0.021,0.197,0.055,0.369,0.098c0.213,0.051,0.408,0.105,0.582,0.166
			c0.172,0.061,0.32,0.135,0.441,0.221c0.123,0.086,0.217,0.195,0.287,0.326C100.578,67.458,100.613,67.62,100.613,67.811z"/>
	</g>
</g>
</svg>
