<?xml version="1.0" encoding="utf-8"?>
<!-- Generator: Adobe Illustrator 16.0.3, SVG Export Plug-In . SVG Version: 6.00 Build 0)  -->
<!DOCTYPE svg PUBLIC "-//W3C//DTD SVG 1.1//EN" "http://www.w3.org/Graphics/SVG/1.1/DTD/svg11.dtd">
<svg version="1.1" id="Capa_1" xmlns="http://www.w3.org/2000/svg" xmlns:xlink="http://www.w3.org/1999/xlink" x="0px" y="0px"
	 width="841.89px" height="595.28px" viewBox="0 0 841.89 595.28" enable-background="new 0 0 841.89 595.28" xml:space="preserve">
<g>
	<path fill="#FDFDFD" d="M483.27,297.886c0,19.339-27.398,35.018-61.196,35.018c-33.798,0-61.195-15.679-61.195-35.018
		c0-19.34,27.397-35.019,61.195-35.019C455.871,262.867,483.27,278.546,483.27,297.886"/>
	<path fill="#FFFFFF" d="M433.596,294.576c0.212,0,0.393,0.107,0.541,0.321c0.15,0.214,0.224,0.474,0.224,0.779
		c0,0.299-0.073,0.555-0.224,0.768c-0.148,0.214-0.329,0.321-0.541,0.321c-0.209,0-0.388-0.104-0.539-0.315
		c-0.151-0.211-0.228-0.469-0.228-0.774s0.076-0.565,0.228-0.779C433.208,294.683,433.387,294.576,433.596,294.576"/>
	<path fill="#799BBE" d="M405.353,298.61l0.188,0.118c-0.066,0.738-0.103,1.395-0.108,1.966c0.892-0.806,1.514-1.336,1.865-1.597
		c0.351-0.259,0.957-0.39,1.816-0.39c0.538,0,1.026,0.074,1.466,0.22c0.439,0.146,0.846,0.386,1.221,0.72
		c0.374,0.334,0.669,0.753,0.886,1.256c0.216,0.502,0.324,1.086,0.324,1.747c0,0.467-0.075,0.94-0.226,1.421
		c-0.151,0.48-0.35,0.926-0.595,1.332c-0.247,0.41-0.443,0.682-0.591,0.814c-0.148,0.134-0.323,0.303-0.699,0.677
		c-0.078,0.075-1.23,0.798-1.23,0.798c-0.282,0.201-0.69,0.252-0.802,0.313c-0.111,0.057-0.298,0.115-0.561,0.174
		c-0.263,0.059-0.542,0.087-0.837,0.087c-0.682,0-1.362-0.171-2.037-0.515v2.072c0,0.143,0.013,0.604,0.039,1.377
		c0.026,0.775,0.054,1.229,0.084,1.358c0.029,0.13-2.07,0.329-2.008,0.269c0.063-0.063,0.105-0.162,0.128-0.297
		c0.023-0.137,0.05-0.572,0.079-1.305c0.03-0.732,0.044-1.285,0.044-1.654v-7.456c0-0.337-0.015-0.728-0.044-1.173
		c-0.029-0.444-0.054-0.702-0.074-0.774c-0.02-0.071-0.066-0.13-0.143-0.176c-0.075-0.045-0.244-0.067-0.507-0.067l-0.827-0.01
		l-0.088-0.078v-0.419l0.079-0.077C403.447,299.191,404.5,298.947,405.353,298.61 M405.432,306.076
		c0.302,0.305,0.675,0.569,1.122,0.793c0.446,0.223,0.938,0.336,1.477,0.336c0.637,0,1.199-0.159,1.688-0.478
		c0.489-0.317,0.867-0.784,1.137-1.397c0.269-0.612,0.403-1.292,0.403-2.038c0-0.604-0.119-1.165-0.358-1.684
		c-0.24-0.52-0.611-0.928-1.112-1.228c-0.502-0.297-1.036-0.447-1.601-0.447c-0.348,0-0.686,0.06-1.013,0.18
		c-0.329,0.12-0.636,0.297-0.921,0.531c-0.286,0.232-0.491,0.455-0.615,0.666c-0.125,0.212-0.19,0.387-0.197,0.527
		c-0.006,0.139-0.009,0.293-0.009,0.461V306.076z"/>
	<path fill="#799BBE" d="M414.496,303.545c0-0.772,0.161-1.517,0.482-2.234c0.322-0.717,0.881-1.336,1.678-1.859
		c0.797-0.521,1.743-0.783,2.839-0.783c1.377,0,2.5,0.431,3.366,1.289c0.866,0.86,1.299,1.966,1.299,3.314
		c0,1.487-0.497,2.71-1.491,3.671s-2.193,1.438-3.598,1.438c-0.918,0-1.738-0.244-2.46-0.733c-0.722-0.489-1.255-1.089-1.599-1.796
		C414.668,305.145,414.496,304.375,414.496,303.545 M416.356,302.873c0,0.908,0.118,1.723,0.354,2.438
		c0.236,0.719,0.61,1.293,1.122,1.729c0.512,0.435,1.096,0.651,1.752,0.651c0.774,0,1.414-0.303,1.919-0.91
		c0.505-0.607,0.758-1.521,0.758-2.74c0-1.383-0.274-2.514-0.821-3.396c-0.549-0.883-1.337-1.323-2.368-1.323
		c-0.853,0-1.519,0.304-1.997,0.913C416.596,300.846,416.356,301.725,416.356,302.873"/>
	<path fill="#799BBE" d="M428.512,293.587l0.187,0.117c-0.071,0.747-0.108,2.242-0.108,4.488v6.104c0,0.143,0.013,0.602,0.04,1.376
		c0.026,0.776,0.054,1.229,0.083,1.358c0.03,0.13,0.074,0.225,0.133,0.282c0.06,0.06,0.131,0.097,0.217,0.112
		c0.085,0.017,0.439,0.043,1.063,0.084l0.09,0.077v0.407l-0.08,0.088c-0.819-0.053-1.609-0.076-2.371-0.076
		c-0.754,0-1.542,0.023-2.362,0.076l-0.088-0.088v-0.407l0.088-0.077c0.637-0.041,0.995-0.069,1.077-0.088
		c0.082-0.021,0.154-0.061,0.218-0.121c0.062-0.064,0.104-0.158,0.128-0.284c0.022-0.126,0.049-0.545,0.078-1.256
		c0.029-0.71,0.044-1.247,0.044-1.61v-5.041l-0.039-2.065c-0.02-0.719-0.042-1.219-0.063-1.499
		c-0.023-0.278-0.055-0.444-0.095-0.496c-0.038-0.052-0.108-0.09-0.206-0.117c-0.098-0.026-0.495-0.039-1.191-0.039l-0.088-0.088
		v-0.408l0.079-0.088C426.596,294.166,427.652,293.925,428.512,293.587"/>
	<path fill="#799BBE" d="M434.367,298.728l0.188,0.126c-0.072,0.85-0.108,1.931-0.108,3.24v2.201c0,0.143,0.013,0.602,0.04,1.376
		c0.025,0.776,0.055,1.229,0.084,1.358c0.028,0.13,0.072,0.225,0.133,0.282c0.059,0.06,0.131,0.097,0.216,0.112
		c0.085,0.017,0.439,0.043,1.063,0.084l0.088,0.077v0.407l-0.078,0.088c-0.82-0.053-1.611-0.076-2.373-0.076
		c-0.754,0-1.541,0.023-2.361,0.076l-0.089-0.088v-0.407l0.089-0.077c0.636-0.041,0.996-0.069,1.077-0.088
		c0.083-0.021,0.155-0.061,0.216-0.121c0.064-0.064,0.105-0.158,0.129-0.284s0.049-0.545,0.078-1.256
		c0.031-0.71,0.045-1.247,0.045-1.61v-1.918c0-0.259-0.013-0.612-0.039-1.061s-0.049-0.725-0.064-0.828
		c-0.017-0.103-0.066-0.18-0.152-0.229c-0.085-0.048-0.256-0.073-0.512-0.073l-0.826-0.009l-0.09-0.078v-0.42l0.08-0.077
		C432.451,299.309,433.508,299.064,434.367,298.728"/>
	<path fill="#799BBE" d="M434.936,300.283v-0.252l0.1-0.098c0.891-0.228,1.037-0.361,1.587-0.555c0-1.693-0.028-2.68-0.086-2.958
		c0.978-0.235,1.778-0.484,2.405-0.751l0.34,0.196c-0.094,0.408-0.208,1.596-0.34,3.562c0.473,0.006,0.984,0.01,1.535,0.01
		c1.118,0-0.088,0.049,0.396,0.009l0.1,0.069l-0.271,0.816l-0.113,0.088c-0.483-0.006,0.989-0.078,0.4-0.078
		c-0.53,0-1.213,0.004-2.047,0.01l-0.086,3.963c0,0.912,0.03,1.512,0.093,1.795c0.061,0.282,0.231,0.502,0.511,0.662
		c0.279,0.158,0.695,0.238,1.244,0.238c0.637,0,1.223-0.113,1.764-0.34l0.342,0.35c-0.227,0.111-0.773,0.436-1.635,0.973
		c-0.494,0.156-0.996,0.234-1.508,0.234c-2.135,0-3.199-0.706-3.199-2.121c0-0.52,0.019-0.961,0.056-1.324
		c0.009-0.11,0.014-0.224,0.014-0.34V300.4h-0.583c-0.426,0-0.34-0.064-0.889-0.038L434.936,300.283z"/>
	<path fill="#799BBE" d="M445.224,301.404l-0.384-0.098l-0.078-0.097v-1.208c1.168-0.856,2.303-1.284,3.405-1.284
		c0.754,0,1.381,0.14,1.879,0.419c0.499,0.277,0.86,0.627,1.083,1.045c0.223,0.419,0.334,0.907,0.334,1.465l-0.049,1.957v2.9
		c0,0.396,0.029,0.637,0.084,0.721s0.12,0.142,0.191,0.17c0.072,0.029,0.207,0.054,0.404,0.072l0.561,0.049l0.079,0.088v0.389
		l-0.079,0.078c-0.479-0.039-0.925-0.059-1.338-0.059c-0.395,0-0.867,0.02-1.418,0.059l-0.147-0.136l0.04-1.567l-2.146,1.654
		c-0.361,0.15-0.755,0.225-1.181,0.225c-0.524,0-0.977-0.095-1.354-0.283c-0.377-0.187-0.666-0.45-0.866-0.787
		c-0.199-0.338-0.3-0.746-0.3-1.227c0-0.953,0.302-1.698,0.905-2.233c0.604-0.536,2.25-0.992,4.941-1.368
		c0-0.96-0.217-1.636-0.65-2.029c-0.433-0.393-1.014-0.59-1.742-0.59c-0.381,0-0.727,0.056-1.037,0.166
		c-0.313,0.111-0.491,0.199-0.537,0.268c-0.047,0.068-0.223,0.467-0.531,1.193L445.224,301.404z M449.791,302.941
		c-1.838,0.305-2.982,0.632-3.436,0.983c-0.453,0.351-0.68,0.892-0.68,1.624c0,1.014,0.509,1.52,1.525,1.52
		c0.873,0,1.736-0.5,2.59-1.5V302.941z"/>
	<path fill="#799BBE" d="M456.581,298.728l0.187,0.126c-0.039,0.435-0.064,1.006-0.078,1.714c0.525-0.43,1.023-0.864,1.496-1.305
		c0.139-0.124,0.268-0.215,0.389-0.272c0.121-0.059,0.323-0.12,0.605-0.186c0.281-0.064,0.57-0.098,0.865-0.098
		c0.5,0,0.982,0.102,1.453,0.303c0.469,0.201,0.822,0.438,1.063,0.715c0.239,0.275,0.404,0.603,0.496,0.979
		c0.093,0.375,0.139,0.84,0.139,1.391v1.715c0,0.109,0.016,0.918,0.049,2.422c0.013,0.617,0.082,0.984,0.207,1.102
		c0.125,0.116,0.531,0.176,1.221,0.176l0.078,0.077v0.419l-0.078,0.076c-0.834-0.053-1.398-0.076-1.693-0.076
		c-0.171,0-0.649,0.023-1.438,0.076l-0.117-0.107c0.086-0.842,0.127-1.943,0.127-3.299v-1.275c0-0.766-0.018-1.316-0.053-1.653
		c-0.037-0.339-0.146-0.646-0.331-0.921c-0.183-0.275-0.429-0.49-0.737-0.643s-0.676-0.229-1.104-0.229
		c-0.34,0-0.633,0.035-0.875,0.102c-0.242,0.068-0.516,0.209-0.816,0.419c-0.303,0.212-0.525,0.409-0.67,0.594
		s-0.23,0.357-0.261,0.517c-0.029,0.158-0.044,0.498-0.044,1.016v1.695c0,0.143,0.013,0.602,0.039,1.376
		c0.025,0.776,0.053,1.229,0.084,1.358c0.03,0.13,0.072,0.225,0.133,0.282c0.059,0.06,0.131,0.097,0.217,0.112
		c0.085,0.017,0.439,0.043,1.063,0.084l0.089,0.077v0.407l-0.079,0.088c-0.82-0.053-1.611-0.076-2.373-0.076
		c-0.754,0-1.541,0.023-2.361,0.076l-0.089-0.088v-0.407l0.089-0.077c0.637-0.041,0.996-0.069,1.078-0.088
		c0.082-0.021,0.154-0.061,0.217-0.121c0.063-0.064,0.105-0.158,0.128-0.284s0.049-0.545,0.078-1.256
		c0.03-0.71,0.046-1.247,0.046-1.61v-1.918c0-0.259-0.016-0.612-0.041-1.061c-0.026-0.448-0.047-0.725-0.063-0.828
		c-0.018-0.103-0.068-0.18-0.154-0.229c-0.085-0.048-0.255-0.073-0.512-0.073l-0.826-0.009l-0.089-0.078v-0.42l0.079-0.077
		C454.664,299.309,455.722,299.064,456.581,298.728"/>
	<path fill="#799BBE" d="M467.033,301.404l-0.384-0.098l-0.077-0.097v-1.208c1.166-0.856,2.301-1.284,3.404-1.284
		c0.755,0,1.381,0.14,1.879,0.419c0.5,0.277,0.86,0.627,1.084,1.045c0.223,0.419,0.334,0.907,0.334,1.465l-0.049,1.957v2.9
		c0,0.396,0.027,0.637,0.083,0.721s0.12,0.142,0.192,0.17c0.072,0.029,0.207,0.054,0.403,0.072l0.562,0.049l0.079,0.088v0.389
		l-0.079,0.078c-0.479-0.039-0.926-0.059-1.339-0.059c-0.394,0-0.866,0.02-1.417,0.059l-0.148-0.136l0.039-1.567l-2.145,1.654
		c-0.361,0.15-0.756,0.225-1.182,0.225c-0.525,0-0.977-0.095-1.354-0.283c-0.377-0.187-0.666-0.45-0.865-0.787
		c-0.2-0.338-0.301-0.746-0.301-1.227c0-0.953,0.302-1.698,0.906-2.233c0.604-0.536,2.25-0.992,4.939-1.368
		c0-0.96-0.217-1.636-0.648-2.029c-0.434-0.393-1.014-0.59-1.742-0.59c-0.381,0-0.727,0.056-1.039,0.166
		c-0.311,0.111-0.49,0.199-0.536,0.268s-0.224,0.467-0.531,1.193L467.033,301.404z M471.6,302.941
		c-1.836,0.305-2.982,0.632-3.434,0.983c-0.453,0.351-0.68,0.892-0.68,1.624c0,1.014,0.508,1.52,1.525,1.52
		c0.873,0,1.736-0.5,2.588-1.5V302.941z"/>
	<path fill="#799BBE" d="M410.844,295.97l-0.409,0.91c-0.886,0.566-1.676,0.934-2.37,1.102c-0.695,0.169-1.315,0.253-1.86,0.253
		c-1.023,0-1.992-0.199-2.909-0.595c-0.916-0.397-1.661-1.068-2.236-2.013s-0.863-2.085-0.863-3.418
		c0-0.886,0.111-1.685,0.332-2.399c0.222-0.713,0.454-1.242,0.697-1.589c0.243-0.346,0.654-0.729,1.233-1.151
		c0.579-0.423,1.193-0.76,1.841-1.013c0.646-0.254,1.347-0.379,2.096-0.379c1.021,0,1.923,0.238,2.704,0.715
		c0.779,0.476,1.325,1.086,1.642,1.828c0.314,0.743,0.472,1.533,0.472,2.369c0,0.26-0.013,0.514-0.038,0.758l-0.141,0.139
		c-0.58,0.127-1.359,0.211-2.339,0.253c-0.98,0.042-1.627,0.063-1.942,0.063h-4.103c0.017,1.746,0.46,3.034,1.329,3.86
		c0.869,0.827,1.935,1.24,3.196,1.24c0.596,0,1.169-0.101,1.719-0.304c0.55-0.201,1.131-0.484,1.745-0.847L410.844,295.97z
		 M402.651,290.791c0.154,0.026,0.744,0.056,1.77,0.089c1.027,0.035,1.788,0.051,2.282,0.051c1.185,0,1.904-0.021,2.16-0.063
		c0.008-0.201,0.013-0.358,0.013-0.467c0-1.309-0.269-2.281-0.806-2.918c-0.537-0.637-1.27-0.956-2.198-0.956
		c-1.014,0-1.805,0.359-2.371,1.076C402.934,288.318,402.651,289.383,402.651,290.791"/>
	<path fill="#799BBE" d="M412.672,287.893v-0.328l0.089-0.127c0.801-0.296,1.449-0.569,1.942-0.824c0-2.202-0.025-3.485-0.076-3.848
		c0.877-0.303,1.597-0.628,2.16-0.973l0.307,0.252c-0.086,0.532-0.188,2.077-0.307,4.632c0.427,0.01,0.886,0.015,1.381,0.015
		c1.006,0,1.725-0.027,2.16-0.078l0.09,0.09l-0.244,1.064l-0.102,0.112c-0.434-0.008-0.916-0.012-1.444-0.012
		c-0.478,0-1.091,0.004-1.841,0.012l-0.076,5.153c0,1.19,0.027,1.967,0.083,2.335c0.055,0.367,0.208,0.654,0.46,0.861
		c0.25,0.207,0.624,0.309,1.118,0.309c0.571,0,1.099-0.146,1.585-0.441l0.306,0.455c-0.204,0.144-0.694,0.565-1.47,1.267
		c-0.442,0.201-0.894,0.303-1.354,0.303c-1.917,0-2.875-0.92-2.875-2.759c0-0.675,0.018-1.25,0.051-1.722
		c0.009-0.143,0.013-0.291,0.013-0.443v-5.254h-0.525c-0.383,0-0.821,0.017-1.315,0.05L412.672,287.893z"/>
	<path fill="#799BBE" d="M425.53,285.766l0.242,0.165c-0.05,0.489-0.089,1.359-0.114,2.608l0.959-1.202
		c0.314-0.397,0.594-0.703,0.836-0.918c0.244-0.215,0.527-0.382,0.85-0.5c0.325-0.119,0.656-0.178,0.998-0.178
		c0.375,0,0.729,0.077,1.061,0.228l0.09,0.177c-0.137,1.124-0.213,2.109-0.23,2.963h-0.575c-0.341-0.776-0.89-1.165-1.648-1.165
		c-0.528,0-0.988,0.166-1.38,0.499c-0.393,0.335-0.654,0.752-0.787,1.253c-0.133,0.503-0.197,1.138-0.197,1.905v1.406
		c0,0.254,0.017,0.874,0.051,1.861c0.033,0.988,0.07,1.557,0.109,1.708c0.037,0.152,0.097,0.265,0.178,0.336
		c0.081,0.072,0.188,0.12,0.32,0.146c0.132,0.024,0.738,0.068,1.821,0.127l0.115,0.101v0.533l-0.115,0.113
		c-1.134-0.068-2.318-0.102-3.554-0.102c-0.98,0-2.002,0.034-3.068,0.102l-0.115-0.113v-0.533l0.115-0.101
		c0.828-0.051,1.292-0.089,1.4-0.115c0.106-0.024,0.2-0.078,0.281-0.158c0.082-0.08,0.137-0.203,0.166-0.367
		c0.029-0.164,0.064-0.708,0.104-1.633c0.037-0.924,0.057-1.622,0.057-2.095v-2.494c0-0.338-0.018-0.797-0.051-1.38
		c-0.034-0.583-0.063-0.941-0.084-1.075c-0.021-0.135-0.088-0.233-0.197-0.297c-0.111-0.063-0.332-0.096-0.665-0.096l-1.074-0.012
		l-0.115-0.102v-0.545l0.102-0.101C423.043,286.522,424.414,286.206,425.53,285.766"/>
	<path fill="#799BBE" d="M431.832,292.032c0-1.004,0.208-1.972,0.625-2.905c0.418-0.933,1.145-1.737,2.18-2.418
		c1.035-0.679,2.265-1.019,3.688-1.019c1.789,0,3.247,0.56,4.371,1.677c1.125,1.119,1.688,2.555,1.688,4.311
		c0,1.933-0.646,3.524-1.937,4.773c-1.29,1.248-2.849,1.873-4.671,1.873c-1.193,0-2.259-0.319-3.196-0.957
		c-0.938-0.639-1.63-1.415-2.076-2.336C432.055,294.112,431.832,293.113,431.832,292.032 M434.247,291.159
		c0,1.182,0.153,2.239,0.46,3.171c0.307,0.933,0.793,1.683,1.457,2.247c0.664,0.566,1.424,0.849,2.275,0.849
		c1.005,0,1.836-0.394,2.492-1.184c0.656-0.789,0.984-1.978,0.984-3.563c0-1.798-0.355-3.27-1.066-4.418
		c-0.713-1.147-1.737-1.721-3.074-1.721c-1.109,0-1.973,0.396-2.596,1.19C434.559,288.522,434.247,289.666,434.247,291.159"/>
	<path fill="#779BBE" d="M399.799,310.744c0,0.664,0.211,1.176,0.632,1.537c0.309,0.264,0.898,0.477,1.767,0.644
		c0.422,0.082,0.667,0.142,0.736,0.176c0.071,0.036,0.105,0.087,0.105,0.157c0,0.068-0.035,0.124-0.105,0.165
		c-0.07,0.042-0.16,0.063-0.273,0.063l-6.423,0.188c0,0,0.036-2.11,0.036-2.83l0.466-24.785l-6.052,9.141
		c-0.354,0.35-1.298,1.333-1.665,1.261c-0.857,0.169-6.749-6.197-6.749-6.197l0.196,22.702h1.59c0.112,0,0.217,0.023,0.315,0.07
		c0.099,0.046,0.147,0.108,0.147,0.188s-0.048,0.145-0.147,0.19c-0.098,0.047-0.203,0.07-0.315,0.07h-11.116l0.005-0.52v-30.19
		h-2.735c-0.168,0-0.309-0.024-0.421-0.073c-0.112-0.048-0.168-0.114-0.168-0.197c0-0.07,0.056-0.128,0.168-0.177
		c0.112-0.048,0.253-0.072,0.421-0.072h11.444l7.535,11.439l8.453-10.458l-0.923-0.176l-1.555-0.121l0.024-0.684h0.931h0.771h0.942
		h0.603h1.381l-0.021,0.52V310.744z"/>
	<path fill="#FAFAFA" d="M381.441,307.148c0.301,0.565,0.452,1.269,0.452,2.111c0,1.09-0.354,1.959-1.062,2.613
		c-0.707,0.654-1.634,0.981-2.783,0.981c-1.234,0-2.232-0.368-2.994-1.104c-0.76-0.736-1.141-1.668-1.141-2.799
		c0-0.726,0.105-1.326,0.317-1.803h0.963c-0.308,0.548-0.462,1.152-0.462,1.813c0,0.879,0.296,1.592,0.888,2.135
		c0.593,0.548,1.383,0.82,2.375,0.82c0.94,0,1.689-0.256,2.247-0.766c0.559-0.51,0.837-1.179,0.837-2.008
		c0-0.768-0.172-1.432-0.517-1.994H381.441z"/>
	<rect x="373.602" y="304.834" fill="#FAFAFA" width="8.163" height="0.873"/>
	<path fill="#FAFAFA" d="M373.44,301.4l1.766,1.396v0.678l-1.766-1.189V301.4z M381.764,303.064h-5.513v-0.876h5.513V303.064z"/>
	<path fill="#FAFAFA" d="M381.764,295.887v0.874h-3.144c-1.17,0-1.756,0.422-1.756,1.269c0,0.437,0.166,0.8,0.499,1.085
		c0.332,0.286,0.75,0.429,1.257,0.429h3.144v0.876h-5.513v-0.876h0.915v-0.021c-0.696-0.412-1.044-1.011-1.044-1.792
		c0-0.597,0.194-1.054,0.583-1.37s0.952-0.474,1.688-0.474H381.764z"/>
	<path fill="#FAFAFA" d="M374.851,293.791c0,0.157-0.054,0.289-0.162,0.399c-0.107,0.111-0.244,0.166-0.41,0.166
		c-0.165,0-0.302-0.055-0.412-0.166c-0.109-0.11-0.164-0.243-0.164-0.399c0-0.16,0.055-0.295,0.164-0.407
		c0.11-0.112,0.247-0.168,0.412-0.168c0.159,0,0.293,0.056,0.404,0.168C374.795,293.496,374.851,293.63,374.851,293.791
		 M381.764,294.239h-5.513v-0.874h5.513V294.239z"/>
	<path fill="#FAFAFA" d="M381.511,287.873c0.255,0.418,0.383,0.917,0.383,1.493c0,0.778-0.256,1.406-0.769,1.884
		c-0.511,0.479-1.173,0.717-1.988,0.717c-0.909,0-1.638-0.257-2.189-0.773c-0.55-0.516-0.826-1.203-0.826-2.063
		c0-0.48,0.089-0.903,0.269-1.269h0.904c-0.287,0.404-0.431,0.837-0.431,1.301c0,0.557,0.203,1.016,0.606,1.374
		c0.404,0.356,0.934,0.535,1.591,0.535c0.646,0,1.156-0.169,1.529-0.504c0.374-0.336,0.561-0.786,0.561-1.353
		c0-0.476-0.16-0.924-0.479-1.342H381.511z"/>
	<path fill="#FAFAFA" d="M381.764,282.64v0.875h-0.861v0.021c0.659,0.38,0.99,0.941,0.99,1.679c0,0.544-0.146,0.97-0.437,1.278
		c-0.29,0.308-0.676,0.461-1.158,0.461c-1.03,0-1.629-0.601-1.798-1.803l-0.231-1.636c-0.937,0-1.406,0.375-1.406,1.125
		c0,0.656,0.227,1.25,0.678,1.78h-0.904c-0.344-0.537-0.516-1.156-0.516-1.855c0-1.285,0.686-1.926,2.056-1.926H381.764z
		 M378.976,283.515l0.183,1.318c0.057,0.404,0.159,0.709,0.304,0.915c0.146,0.207,0.403,0.311,0.773,0.311
		c0.27,0,0.489-0.096,0.66-0.286c0.17-0.189,0.255-0.443,0.255-0.759c0-0.433-0.153-0.792-0.46-1.075
		c-0.307-0.282-0.695-0.423-1.166-0.423H378.976z"/>
	<path fill="#779BBE" d="M422.213,256.862c-37.555,0-68,18.357-68,41c0,22.644,30.445,41,68,41s68-18.356,68-41
		C490.213,275.219,459.769,256.862,422.213,256.862 M422.159,337.31c-36.586,0-66.246-17.661-66.246-39.447
		c0-21.787,29.66-39.449,66.246-39.449c36.585,0,66.245,17.662,66.245,39.449C488.403,319.648,458.744,337.31,422.159,337.31"/>
	<path fill="#025284" d="M422.186,260.345c-35.342,0-63.992,16.806-63.992,37.541c0,20.732,28.65,37.54,63.992,37.54
		s63.992-16.808,63.992-37.54C486.178,277.151,457.527,260.345,422.186,260.345 M422.074,332.903
		c-33.798,0-61.195-15.679-61.195-35.018c0-19.34,27.397-35.019,61.195-35.019c33.797,0,61.196,15.679,61.196,35.019
		C483.27,317.225,455.871,332.903,422.074,332.903"/>
	<g>
		<path fill="#025284" d="M421.966,313.271c0,0.137-0.033,0.285-0.101,0.441c-0.066,0.16-0.173,0.316-0.316,0.469
			c-0.145,0.153-0.329,0.277-0.553,0.373s-0.485,0.145-0.783,0.145c-0.227,0-0.433-0.023-0.617-0.064
			c-0.185-0.044-0.354-0.111-0.505-0.201c-0.15-0.091-0.29-0.211-0.416-0.357c-0.114-0.135-0.209-0.286-0.29-0.451
			c-0.08-0.168-0.14-0.346-0.179-0.535c-0.04-0.188-0.06-0.39-0.06-0.602c0-0.346,0.05-0.654,0.15-0.928s0.244-0.506,0.432-0.699
			c0.187-0.194,0.406-0.342,0.657-0.443c0.251-0.102,0.52-0.152,0.804-0.152c0.347,0,0.656,0.068,0.926,0.208
			c0.271,0.138,0.479,0.31,0.624,0.513c0.144,0.203,0.216,0.396,0.216,0.577c0,0.101-0.035,0.187-0.105,0.264
			c-0.07,0.075-0.155,0.113-0.254,0.113c-0.111,0-0.195-0.025-0.25-0.079c-0.056-0.053-0.118-0.144-0.186-0.271
			c-0.112-0.213-0.246-0.372-0.399-0.477c-0.153-0.105-0.342-0.158-0.566-0.158c-0.356,0-0.64,0.136-0.852,0.406
			c-0.211,0.271-0.316,0.657-0.316,1.156c0,0.332,0.046,0.611,0.14,0.832s0.226,0.386,0.398,0.495
			c0.171,0.108,0.372,0.163,0.602,0.163c0.249,0,0.459-0.061,0.633-0.186c0.172-0.122,0.302-0.305,0.39-0.545
			c0.037-0.112,0.082-0.205,0.137-0.275c0.054-0.072,0.142-0.107,0.262-0.107c0.104,0,0.192,0.035,0.267,0.107
			C421.929,313.074,421.966,313.165,421.966,313.271z"/>
		<path fill="#025284" d="M424.193,313.979l-0.688-2.73v2.959c0,0.164-0.035,0.287-0.108,0.368
			c-0.073,0.083-0.171,0.124-0.291,0.124c-0.117,0-0.213-0.041-0.286-0.121c-0.074-0.082-0.111-0.205-0.111-0.371v-3.393
			c0-0.187,0.049-0.313,0.146-0.378s0.229-0.098,0.395-0.098h0.268c0.162,0,0.28,0.015,0.354,0.044s0.127,0.082,0.162,0.158
			s0.074,0.199,0.119,0.371l0.623,2.348l0.623-2.348c0.045-0.172,0.084-0.295,0.119-0.371s0.09-0.129,0.162-0.158
			c0.073-0.029,0.191-0.044,0.354-0.044h0.268c0.166,0,0.297,0.032,0.396,0.098c0.097,0.065,0.146,0.191,0.146,0.378v3.393
			c0,0.164-0.037,0.287-0.109,0.368c-0.074,0.083-0.171,0.124-0.293,0.124c-0.115,0-0.21-0.041-0.285-0.124
			c-0.074-0.081-0.109-0.204-0.109-0.368v-2.959l-0.688,2.73c-0.045,0.178-0.082,0.308-0.109,0.391
			c-0.029,0.082-0.081,0.158-0.157,0.227c-0.075,0.068-0.181,0.104-0.315,0.104c-0.102,0-0.188-0.023-0.258-0.066
			s-0.124-0.1-0.163-0.169c-0.039-0.067-0.069-0.144-0.093-0.227C424.24,314.154,424.218,314.069,424.193,313.979z"/>
		<path fill="#025284" d="M429.619,310.266c0.443,0,0.824,0.09,1.143,0.27c0.32,0.182,0.561,0.437,0.725,0.77
			c0.164,0.332,0.246,0.723,0.246,1.172c0,0.332-0.045,0.633-0.135,0.903s-0.225,0.505-0.403,0.704s-0.4,0.352-0.661,0.457
			c-0.262,0.104-0.561,0.158-0.896,0.158s-0.637-0.055-0.9-0.163c-0.266-0.108-0.486-0.261-0.664-0.458
			c-0.177-0.197-0.312-0.433-0.402-0.709c-0.09-0.277-0.135-0.576-0.135-0.899c0-0.329,0.047-0.632,0.141-0.906
			c0.095-0.274,0.232-0.509,0.412-0.702c0.178-0.191,0.396-0.34,0.654-0.442C428.999,310.318,429.291,310.266,429.619,310.266z
			 M430.852,312.47c0-0.313-0.05-0.585-0.15-0.816c-0.103-0.229-0.247-0.403-0.436-0.521c-0.188-0.118-0.404-0.177-0.646-0.177
			c-0.174,0-0.335,0.032-0.481,0.098c-0.147,0.066-0.274,0.162-0.38,0.285c-0.105,0.125-0.19,0.285-0.252,0.479
			c-0.061,0.194-0.092,0.412-0.092,0.653c0,0.243,0.031,0.465,0.092,0.662c0.062,0.196,0.148,0.36,0.261,0.49
			c0.112,0.129,0.241,0.225,0.386,0.289c0.146,0.064,0.305,0.097,0.479,0.097c0.222,0,0.426-0.055,0.611-0.166
			c0.188-0.111,0.335-0.282,0.445-0.515C430.797,313.096,430.852,312.809,430.852,312.47z"/>
		<path fill="#025284" d="M434.006,314.17v-3.377c0-0.176,0.039-0.309,0.12-0.395c0.079-0.088,0.183-0.133,0.31-0.133
			c0.131,0,0.236,0.043,0.316,0.131c0.082,0.086,0.122,0.219,0.122,0.396v3.377c0,0.178-0.04,0.309-0.122,0.396
			c-0.08,0.088-0.186,0.133-0.316,0.133c-0.125,0-0.228-0.045-0.309-0.134C434.047,314.478,434.006,314.346,434.006,314.17z"/>
		<path fill="#025284" d="M437.507,312.956h-0.795v1.214c0,0.173-0.041,0.305-0.122,0.395c-0.082,0.09-0.186,0.135-0.311,0.135
			c-0.131,0-0.235-0.045-0.314-0.134c-0.08-0.088-0.121-0.218-0.121-0.391v-3.304c0-0.191,0.045-0.328,0.133-0.408
			c0.087-0.083,0.227-0.124,0.418-0.124h1.112c0.33,0,0.583,0.025,0.761,0.075c0.176,0.049,0.326,0.131,0.454,0.243
			c0.128,0.113,0.225,0.251,0.291,0.415c0.067,0.163,0.099,0.348,0.099,0.553c0,0.437-0.134,0.768-0.402,0.992
			C438.439,312.844,438.039,312.956,437.507,312.956z M437.297,310.99h-0.585v1.311h0.585c0.205,0,0.376-0.022,0.512-0.064
			c0.139-0.043,0.243-0.113,0.315-0.211s0.108-0.225,0.108-0.383c0-0.189-0.056-0.344-0.167-0.462
			C437.941,311.055,437.686,310.99,437.297,310.99z"/>
		<path fill="#025284" d="M443.093,313.338c0,0.261-0.067,0.493-0.2,0.699c-0.133,0.207-0.328,0.369-0.586,0.486
			c-0.258,0.116-0.562,0.176-0.915,0.176c-0.423,0-0.771-0.08-1.046-0.24c-0.195-0.115-0.354-0.27-0.475-0.461
			c-0.122-0.192-0.184-0.378-0.184-0.56c0-0.104,0.036-0.196,0.11-0.271c0.073-0.074,0.166-0.113,0.278-0.113
			c0.092,0,0.17,0.03,0.232,0.09c0.063,0.057,0.117,0.145,0.162,0.258c0.055,0.138,0.115,0.252,0.178,0.342
			c0.063,0.093,0.152,0.168,0.268,0.227c0.114,0.061,0.266,0.09,0.453,0.09c0.256,0,0.465-0.061,0.627-0.18
			c0.16-0.119,0.24-0.269,0.24-0.447c0-0.143-0.043-0.259-0.129-0.348c-0.088-0.088-0.199-0.156-0.337-0.203
			s-0.321-0.096-0.552-0.149c-0.307-0.071-0.564-0.157-0.771-0.253c-0.209-0.096-0.373-0.228-0.494-0.396
			c-0.123-0.165-0.184-0.372-0.184-0.62c0-0.236,0.064-0.446,0.193-0.63c0.129-0.181,0.314-0.323,0.558-0.421
			c0.244-0.099,0.53-0.148,0.86-0.148c0.262,0,0.49,0.033,0.682,0.099c0.193,0.065,0.352,0.151,0.479,0.259
			c0.127,0.109,0.219,0.223,0.277,0.341c0.059,0.119,0.087,0.235,0.087,0.349c0,0.104-0.036,0.195-0.108,0.279
			c-0.074,0.083-0.165,0.124-0.273,0.124c-0.1,0-0.176-0.025-0.228-0.075c-0.051-0.049-0.107-0.131-0.167-0.244
			c-0.078-0.162-0.172-0.288-0.281-0.378c-0.109-0.091-0.284-0.137-0.526-0.137c-0.224,0-0.404,0.049-0.542,0.147
			c-0.137,0.1-0.205,0.219-0.205,0.355c0,0.086,0.023,0.16,0.069,0.223c0.047,0.063,0.11,0.116,0.192,0.16
			c0.082,0.045,0.166,0.08,0.249,0.105c0.084,0.026,0.222,0.063,0.415,0.111c0.242,0.057,0.461,0.119,0.656,0.188
			s0.363,0.152,0.5,0.249s0.244,0.22,0.321,0.37C443.055,312.939,443.093,313.123,443.093,313.338z"/>
		<path fill="#025284" d="M448.582,313.338c0,0.261-0.066,0.493-0.201,0.699c-0.133,0.207-0.328,0.369-0.586,0.486
			c-0.256,0.116-0.561,0.176-0.914,0.176c-0.422,0-0.771-0.08-1.046-0.24c-0.196-0.115-0.354-0.27-0.476-0.461
			c-0.121-0.192-0.183-0.378-0.183-0.56c0-0.104,0.036-0.196,0.11-0.271c0.072-0.074,0.166-0.113,0.279-0.113
			c0.091,0,0.168,0.03,0.232,0.09c0.063,0.057,0.116,0.145,0.162,0.258c0.054,0.138,0.113,0.252,0.176,0.342
			c0.063,0.093,0.152,0.168,0.268,0.227c0.115,0.061,0.267,0.09,0.453,0.09c0.258,0,0.467-0.061,0.627-0.18
			c0.162-0.119,0.242-0.269,0.242-0.447c0-0.143-0.045-0.259-0.131-0.348c-0.087-0.088-0.199-0.156-0.336-0.203
			c-0.138-0.047-0.321-0.096-0.551-0.149c-0.309-0.071-0.565-0.157-0.773-0.253s-0.372-0.228-0.494-0.396
			c-0.121-0.165-0.182-0.372-0.182-0.62c0-0.236,0.063-0.446,0.191-0.63c0.129-0.181,0.315-0.323,0.559-0.421
			c0.244-0.099,0.53-0.148,0.859-0.148c0.264,0,0.491,0.033,0.683,0.099c0.192,0.065,0.351,0.151,0.478,0.259
			c0.127,0.109,0.22,0.223,0.278,0.341c0.058,0.119,0.087,0.235,0.087,0.349c0,0.104-0.035,0.195-0.109,0.279
			c-0.072,0.083-0.164,0.124-0.273,0.124c-0.099,0-0.174-0.025-0.227-0.075c-0.051-0.049-0.107-0.131-0.168-0.244
			c-0.078-0.162-0.17-0.288-0.279-0.378c-0.109-0.091-0.285-0.137-0.527-0.137c-0.225,0-0.404,0.049-0.541,0.147
			c-0.139,0.1-0.207,0.219-0.207,0.355c0,0.086,0.023,0.16,0.07,0.223s0.111,0.116,0.192,0.16c0.083,0.045,0.165,0.08,0.249,0.105
			c0.084,0.026,0.223,0.063,0.414,0.111c0.242,0.057,0.462,0.119,0.658,0.188c0.195,0.068,0.361,0.152,0.499,0.249
			s0.243,0.22,0.321,0.37C448.543,312.939,448.582,313.123,448.582,313.338z"/>
		<path fill="#025284" d="M449.564,314.699c-0.121,0-0.225-0.041-0.313-0.117c-0.088-0.079-0.132-0.188-0.132-0.328
			c0-0.119,0.042-0.221,0.126-0.307c0.083-0.086,0.187-0.129,0.31-0.129c0.122,0,0.228,0.042,0.313,0.127
			c0.088,0.084,0.131,0.188,0.131,0.309c0,0.138-0.043,0.247-0.131,0.326C449.783,314.658,449.682,314.699,449.564,314.699z"/>
		<path fill="#025284" d="M453.706,314.141l-0.204-0.539h-1.742l-0.205,0.55c-0.08,0.215-0.148,0.359-0.205,0.435
			s-0.148,0.113-0.277,0.113c-0.109,0-0.206-0.041-0.289-0.121c-0.084-0.08-0.126-0.17-0.126-0.271c0-0.059,0.01-0.119,0.029-0.182
			s0.052-0.149,0.097-0.26l1.096-2.785c0.031-0.08,0.068-0.176,0.113-0.286c0.043-0.112,0.09-0.204,0.141-0.279
			c0.049-0.075,0.113-0.134,0.195-0.181c0.081-0.045,0.18-0.068,0.299-0.068c0.121,0,0.223,0.023,0.303,0.068
			c0.081,0.047,0.146,0.105,0.196,0.178c0.049,0.072,0.091,0.15,0.126,0.232c0.033,0.082,0.077,0.191,0.129,0.331l1.12,2.767
			c0.087,0.209,0.132,0.363,0.132,0.459c0,0.099-0.042,0.191-0.125,0.273c-0.082,0.082-0.182,0.125-0.299,0.125
			c-0.068,0-0.127-0.014-0.176-0.037c-0.049-0.024-0.09-0.057-0.123-0.1c-0.033-0.042-0.068-0.106-0.106-0.193
			C453.766,314.283,453.732,314.206,453.706,314.141z M451.987,312.95h1.28l-0.646-1.77L451.987,312.95z"/>
		<path fill="#025284" d="M455.743,314.699c-0.12,0-0.225-0.041-0.312-0.117c-0.09-0.079-0.133-0.188-0.133-0.328
			c0-0.119,0.042-0.221,0.126-0.307c0.083-0.086,0.187-0.129,0.31-0.129s0.227,0.042,0.314,0.127c0.086,0.084,0.13,0.188,0.13,0.309
			c0,0.138-0.044,0.247-0.13,0.326C455.961,314.658,455.859,314.699,455.743,314.699z"/>
		<path fill="#025284" d="M460.4,313.338c0,0.261-0.068,0.493-0.201,0.699c-0.134,0.207-0.328,0.369-0.586,0.486
			c-0.258,0.116-0.563,0.176-0.915,0.176c-0.423,0-0.771-0.08-1.047-0.24c-0.194-0.115-0.353-0.27-0.475-0.461
			c-0.122-0.192-0.183-0.378-0.183-0.56c0-0.104,0.037-0.196,0.11-0.271c0.072-0.074,0.165-0.113,0.278-0.113
			c0.092,0,0.169,0.03,0.232,0.09c0.063,0.057,0.117,0.145,0.162,0.258c0.055,0.138,0.113,0.252,0.177,0.342
			c0.063,0.093,0.153,0.168,0.268,0.227c0.115,0.061,0.267,0.09,0.453,0.09c0.257,0,0.466-0.061,0.627-0.18s0.241-0.269,0.241-0.447
			c0-0.143-0.043-0.259-0.129-0.348c-0.088-0.088-0.199-0.156-0.338-0.203c-0.137-0.047-0.32-0.096-0.551-0.149
			c-0.308-0.071-0.565-0.157-0.773-0.253c-0.207-0.096-0.371-0.228-0.494-0.396c-0.121-0.165-0.182-0.372-0.182-0.62
			c0-0.236,0.064-0.446,0.193-0.63c0.128-0.181,0.314-0.323,0.559-0.421c0.242-0.099,0.529-0.148,0.858-0.148
			c0.263,0,0.491,0.033,0.683,0.099s0.352,0.151,0.478,0.259c0.128,0.109,0.22,0.223,0.278,0.341
			c0.059,0.119,0.088,0.235,0.088,0.349c0,0.104-0.037,0.195-0.109,0.279c-0.074,0.083-0.165,0.124-0.273,0.124
			c-0.1,0-0.176-0.025-0.227-0.075c-0.053-0.049-0.108-0.131-0.168-0.244c-0.079-0.162-0.172-0.288-0.281-0.378
			c-0.109-0.091-0.284-0.137-0.526-0.137c-0.224,0-0.405,0.049-0.542,0.147c-0.137,0.1-0.207,0.219-0.207,0.355
			c0,0.086,0.024,0.16,0.07,0.223c0.048,0.063,0.111,0.116,0.193,0.16c0.082,0.045,0.165,0.08,0.249,0.105
			c0.084,0.026,0.222,0.063,0.415,0.111c0.24,0.057,0.46,0.119,0.656,0.188c0.195,0.068,0.362,0.152,0.5,0.249
			s0.244,0.22,0.321,0.37C460.36,312.939,460.4,313.123,460.4,313.338z"/>
	</g>
</g>
</svg>
