<svg id="Capa_1" data-name="Capa 1" xmlns="http://www.w3.org/2000/svg" viewBox="0 0 13536.56 8157.96"><defs><style>.cls-1{fill:#fcfcfc;}.cls-2{fill:#fff;}.cls-3{fill:#789bbe;}.cls-4{fill:#769abe;}.cls-5{fill:#f9f9f9;}.cls-6,.cls-7{fill:#005183;}.cls-7{font-size:518.57px;font-family:BerlinSansFBDemi-Bold, Berlin Sans FB Demi;font-weight:700;}</style></defs><title>navbar-logo</title><ellipse class="cls-1" cx="6754.36" cy="4081.26" rx="6091.02" ry="3483.86"/><path class="cls-2" d="M1815.57-888.13q31.7,0,54,32t22.26,77.43q0,44.57-22.26,76.53t-54,31.93q-31,0-53.61-31.44t-22.59-77q0-45.46,22.59-77.43T1815.57-888.13Z" transform="translate(6085.56 4640.12)"/><path class="cls-3" d="M-995.49-486.73l18.62,11.61q-9.76,110.37-10.77,195.58Q-854.44-399.6-802-438.33t180.76-38.75q80.31,0,146,21.79t121.48,71.66q55.8,49.88,88.15,124.93t32.33,173.8q0,69.72-22.54,141.4t-59.25,132.66q-36.74,61-58.8,80.87c-14.7,13.23-32.17,30.19-69.61,67.25C-451.18,344.87-566,416.71-566,416.71c-28.1,20-68.66,25.19-79.78,31s-29.7,11.61-55.83,17.42a383.42,383.42,0,0,1-83.28,8.75q-101.89,0-202.77-51.35V628.77q0,21.32,3.92,137t8.34,135.08c2.93,12.93-206.05,32.76-199.84,26.65s10.43-16,12.72-29.55,4.91-56.82,7.84-129.76,4.42-127.8,4.42-164.6V-138.14q0-50.37-4.42-116.71t-7.35-77c-1.94-7.09-6.7-12.89-14.2-17.42s-24.34-6.78-50.46-6.78l-82.29-1-8.8-7.76v-41.62l7.85-7.77Q-1122.84-436.4-995.49-486.73Zm7.85,742.7q45.06,45.51,111.69,78.94t147,33.4q95,0,168-47.46t113.13-139Q-407.7,90.39-407.69-21q0-90.07-35.75-167.53t-110.7-122Q-629.08-355-713.35-355a291.16,291.16,0,0,0-100.88,17.9q-49,17.92-91.62,52.78T-967.08-218q-18.61,31.44-19.57,52.29t-1,46Z" transform="translate(6085.56 4640.12)"/><path class="cls-3" d="M-85.41,4.22q0-115.24,48-222.24t167-185q119-77.91,282.63-77.92,205.69,0,335,128.29T876.6-22.93q0,221.79-148.44,365.08t-358,143.33q-137.19,0-244.93-73.14T-34,233.69Q-85.37,128.17-85.41,4.22ZM99.73-62.62Q99.73,73,135,180T246.68,351.83q76.43,64.92,174.37,64.88,115.6,0,191-90.55T687.53,53.6q0-206.28-81.79-338T370.13-416q-127.36,0-198.89,91T99.73-62.62Z" transform="translate(6085.56 4640.12)"/><path class="cls-3" d="M1309.57-986.43l18.62,11.65q-10.8,111.35-10.78,446.39V78.75q0,21.32,3.92,137t8.34,135.07c2.93,12.94,7.35,22.28,13.22,28.09a40.74,40.74,0,0,0,21.55,11.16q12.74,2.43,105.79,8.22l8.83,7.73v40.67l-7.84,8.71q-122.48-7.74-236.1-7.73-112.63,0-235.11,7.73l-8.79-8.71V406.05l8.79-7.73q95-5.83,107.28-8.71a45.22,45.22,0,0,0,21.55-12.1q9.32-9.22,12.72-28.09t7.84-124.93q4.39-106,4.42-160.26V-437.35l-3.92-205.31q-2.93-107.49-6.36-149.13t-9.33-49.39c-3.89-5.16-10.78-9-20.57-11.61s-49.31-3.88-118.54-3.88l-8.79-8.71v-40.68l7.84-8.71Q1181.21-936,1309.57-986.43Z" transform="translate(6085.56 4640.12)"/><path class="cls-3" d="M1892.49-475.12l18.59,12.59q-10.8,126.84-10.78,322.43V78.75q0,21.32,3.92,137t8.34,135.07c2.93,12.94,7.35,22.28,13.21,28.09a41,41,0,0,0,21.56,11.16q12.74,2.43,105.82,8.22l8.8,7.73v40.67l-7.85,8.71q-122.46-7.74-236.09-7.73-112.63,0-235.11,7.73l-8.79-8.71V406.05l8.79-7.73q95.05-5.83,107.27-8.71a45,45,0,0,0,21.56-12.1q9.3-9.22,12.75-28.09t7.81-124.93q4.45-106,4.42-160.26V-126.52q0-38.74-3.92-105.56t-6.36-82.3q-2.46-15.5-15.2-22.77t-50.91-7.27l-82.29-.94-8.84-7.77v-41.62l7.85-7.77Q1764.17-424.73,1892.49-475.12Z" transform="translate(6085.56 4640.12)"/><path class="cls-3" d="M1949-320.18v-25.18l9.9-9.69c88.7-22.58,103.27-35.85,158-55.19q0-252.78-8.53-294.39,145.84-34.85,239.25-74.57l33.95,19.38q-14.1,61-33.95,354.4,70.74,1,152.87,1c111.37,0-8.71,4.86,39.44,1l9.9,6.79-26.91,81.31-11.33,8.71c-48.1-.6,98.4-7.73,39.85-7.73q-79.24,0-203.82.95l-8.47,394.14q0,136.5,9.19,178.65t51,65.86q41.78,23.7,123.87,23.71,94.83,0,175.53-33.89l34,34.87q-33.93,16.45-162.77,96.81A495.46,495.46,0,0,1,2419.81,470q-318.53,0-318.49-211.11,0-77.48,5.66-131.68c.94-11,1.38-22.28,1.38-33.89V-308.57h-58c-42.48,0-33.93-6.45-88.63-3.85Z" transform="translate(6085.56 4640.12)"/><path class="cls-3" d="M2973-208.82l-38.23-9.69L2927-228.2V-348.27q174.33-127.85,339-127.83,112.64,0,187.09,41.65t107.76,104.09q33.3,62.43,33.32,145.74L3589.18,10V298.57q0,59.08,8.34,71.66t19.08,17q10.8,4.35,40.17,7.23l55.83,4.87,7.84,8.71v38.71l-7.84,7.77q-71.52-5.82-133.21-5.81-58.77,0-141.08,5.81l-14.7-13.57L3427.53,285,3214,449.62q-53.86,22.29-117.55,22.28-78.37,0-134.69-28.08t-86.21-78.41q-29.88-50.39-29.9-122,0-142.33,90.14-222.24t491.76-136q0-143.3-64.62-201.88t-173.42-58.62q-56.84,0-103.34,16.47t-53.39,26.66q-6.86,10.11-52.9,118.6Zm454.52,153Q3153.24-10.31,3085.65,42t-67.59,161.73q0,151,151.86,151.06,130.23,0,257.61-149.14Z" transform="translate(6085.56 4640.12)"/><path class="cls-3" d="M4103.45-475.12l18.62,12.59q-5.88,64.86-7.84,170.43,78.36-63.94,148.89-129.76,20.56-18.42,38.69-27.14t60.28-18.4a384.16,384.16,0,0,1,86.17-9.68q74.49,0,144.52,30t105.78,71.18q35.76,41.16,49.47,97.3t13.75,138.46V30.34q0,16.46,4.87,241.12,1.93,92,20.56,109.44t121.48,17.42l7.84,7.73V447.7l-7.84,7.73q-124.41-7.74-168.47-7.73-25.53,0-143,7.73l-11.76-10.63q12.73-125.88,12.72-328.28V-10.34q0-114.22-5.37-164.59T4560-266.46q-27.42-41.12-73.45-63.9t-109.75-22.77q-50.9,0-87.17,10.18t-81.3,41.62q-45.06,31.5-66.64,59.07t-25.93,51.35q-4.46,23.74-4.42,101.18V78.75q0,21.32,3.93,137t8.3,135.07c3,12.94,7.35,22.28,13.25,28.09a40.74,40.74,0,0,0,21.55,11.16q12.69,2.43,105.79,8.22l8.83,7.73v40.67l-7.84,8.71q-122.46-7.74-236.1-7.73-112.64,0-235.1,7.73l-8.84-8.71V406.05l8.84-7.73q95-5.83,107.27-8.71a45.12,45.12,0,0,0,21.55-12.1q9.32-9.22,12.72-28.09t7.85-124.93q4.39-106,4.41-160.26V-126.52q0-38.74-3.92-105.56t-6.36-82.3q-2.46-15.5-15.19-22.77t-50.95-7.27l-82.29-.94-8.8-7.77v-41.62l7.84-7.77Q3975.11-424.73,4103.45-475.12Z" transform="translate(6085.56 4640.12)"/><path class="cls-3" d="M5143.83-208.82l-38.23-9.69-7.81-9.69V-348.27q174.33-127.85,338.95-127.83,112.65,0,187.09,41.65t107.76,104.09q33.3,62.43,33.32,145.74L5760,10V298.57q0,59.08,8.34,71.66t19.08,17q10.8,4.35,40.17,7.23l55.83,4.87,7.84,8.71v38.71l-7.84,7.77q-71.52-5.82-133.2-5.81-58.79,0-141.09,5.81l-14.7-13.57L5598.35,285,5384.8,449.62q-53.86,22.29-117.55,22.28-78.37,0-134.69-28.08t-86.21-78.41q-29.88-50.39-29.9-122,0-142.33,90.14-222.24t491.76-136q0-143.3-64.62-201.88t-173.41-58.62q-56.83,0-103.35,16.47t-53.39,26.66q-6.85,10.11-52.89,118.6Zm454.52,153Q5324.06-10.31,5256.47,42t-67.59,161.73q0,151,151.86,151.06,130.23,0,257.61-149.14Z" transform="translate(6085.56 4640.12)"/><path class="cls-3" d="M-448.89-749.42l-40.71,90.67q-132.35,84.42-236,109.59T-910.68-524q-152.69,0-289.45-59.19t-222.61-200.25q-85.86-141-85.87-340.05,0-132.26,33-238.67t69.34-158.07q36.27-51.61,122.77-114.6a815.23,815.23,0,0,1,183.21-100.77q96.65-37.77,208.64-37.77,152.61,0,269.07,71.17t163.48,182q47,110.84,47.06,235.55a725.15,725.15,0,0,1-3.84,75.54l-14,13.88q-86.54,18.88-232.82,25.18t-193.37,6.3h-408.37q2.56,260.68,132.33,384.11t318,123.42a490.72,490.72,0,0,0,171.1-30.23q82.08-30.19,173.64-84.37Zm-815.48-515.11q22.9,3.78,176.2,8.82t227.11,5q176.77,0,215-6.3c.8-20.16,1.26-35.7,1.26-46.63q0-195.21-80.16-290.28t-218.8-95.08q-151.43,0-236,107T-1264.37-1264.53Z" transform="translate(6085.56 4640.12)"/><path class="cls-3" d="M-267-1552.93v-32.76l8.91-12.59q119.55-44.06,193.37-81.88,0-328.71-7.65-382.87,131-45.34,215-97l30.54,25.18q-12.75,79.33-30.54,460.94,63.63,1.3,137.39,1.29,150.1,0,215-7.58l8.91,8.82-24.18,105.82-10.17,11.31q-64.89-1.24-143.75-1.24-71.3,0-183.2,1.24L135-1041.62q0,177.61,8.26,232.37T189.1-723.6q37.47,30.89,111.31,30.84,85.23,0,157.73-44.07l30.54,45.35q-30.51,21.43-146.31,126-66.14,30.19-134.84,30.19-286.22,0-286.24-274.56,0-100.71,5.1-171.26,1.26-21.44,1.26-44.07v-522.69h-52.17q-57.24,0-131,5.05Z" transform="translate(6085.56 4640.12)"/><path class="cls-3" d="M1012.85-1764.53l24.14,16.36q-7.59,73.07-11.42,259.44L1121-1608.35q47.05-59.2,83.35-91.3t84.58-49.76a287.07,287.07,0,0,1,99.23-17.65,251.08,251.08,0,0,1,105.6,22.7l8.91,17.6q-20.39,167.55-22.88,294.73h-57.28q-50.9-115.86-164.08-115.88-78.95,0-137.43,49.76t-78.22,124.67q-19.77,75-19.73,189.55v139.78q0,37.83,5.11,185.14t10.81,170.06c3.81,15.08,9.71,26.24,17.79,33.36s18.65,12,31.83,14.48,73.53,6.75,181.26,12.59l11.46,10.07v52.93l-11.46,11.3q-169.18-10.06-353.65-10.06-146.34,0-305.32,10.06l-11.46-11.3v-52.93l11.46-10.07Q734.22-636,750.13-639.83a58.33,58.33,0,0,0,28-15.76q12.06-12,16.53-36.53t10.2-162.48q5.71-137.86,5.72-208.43v-248.1q0-50.38-5.11-137.3t-8.26-107q-3.19-20.13-19.72-29.6t-66.15-9.46l-106.85-1.24L593-1605.86V-1660l10.16-10.07Q846.18-1699,1012.85-1764.53Z" transform="translate(6085.56 4640.12)"/><path class="cls-3" d="M1640-1141.11q0-149.85,62.34-289t216.9-240.56q154.58-101.38,367-101.37,267.15,0,435.1,166.85t167.93,428.86q0,288.4-192.76,474.82t-465,186.38q-178.15,0-318-95.08T1706.82-842.61Q1640-979.9,1640-1141.11ZM1880.46-1228q0,176.31,45.81,315.5t145,223.55q99.21,84.38,226.46,84.37,150.11,0,248.05-117.77t98-354.52q0-268.26-106.24-439.57T2231.59-1687.7q-165.4,0-258.25,118.37T1880.46-1228Z" transform="translate(6085.56 4640.12)"/><path class="cls-4" d="M-1548.29,720.45q0,99.09,62.83,152.87,46.15,39.23,175.93,64c41.89,8.22,66.37,14.15,73.3,17.52s10.48,8.63,10.48,15.51-3.47,12.4-10.48,16.51-16,6.2-27.22,6.2l-639.39,18.78s3.61-209.89,3.61-281.47l46.3-2465.88L-2455.28-826.1c-35.21,34.86-129.17,132.7-165.72,125.47-85.3,16.88-671.69-616.49-671.69-616.49l19.49,2258.58h158.26a73,73,0,0,1,31.42,6.94c9.79,4.65,14.66,10.92,14.66,18.88s-4.87,14.22-14.66,18.87a72,72,0,0,1-31.42,6.94H-4221.32l.51-51.63V-2062.09h-272.28q-25.12,0-41.88-7.24t-16.76-19.62c0-6.87,5.6-12.74,16.76-17.55s25.13-7.25,41.88-7.25H-3354l750,1138.07,841.3-1040.45-91.89-17.53-154.76-12.06,2.44-68h460.62l-2.06,51.66Z" transform="translate(6085.56 4640.12)"/><path class="cls-5" d="M-3375.5,362.75q45,84.31,45,210.06,0,162.35-105.6,260t-277,97.6q-184.32,0-297.94-109.82T-4124.69,542q0-108.22,31.61-179.29h95.92q-46,81.66-46.07,180.35,0,131.07,88.42,212.47T-3718.49,837q140.4,0,223.72-76.12t83.36-199.72q0-114.63-51.45-198.41Z" transform="translate(6085.56 4640.12)"/><path class="cls-5" d="M-3343.36,132.48v87h-812.4v-87Z" transform="translate(6085.56 4640.12)"/><path class="cls-5" d="M-4171.83-209.18l175.78,139v67.4l-175.78-118.33Zm828.47,78.53v87h-548.73v-87Z" transform="translate(6085.56 4640.12)"/><path class="cls-5" d="M-3343.36-757.73v87H-3656.3q-174.73,0-174.71,126.25,0,65.25,49.58,108t125.13,42.71h312.94v87h-548.73v-87H-3801v-2.11Q-3905-457.43-3905-574.18q0-89.12,58.15-136.32t168-47.23Z" transform="translate(6085.56 4640.12)"/><path class="cls-5" d="M-4031.43-966.21q0,23.36-16.07,39.78T-4088.24-910q-24.63,0-41-16.47a54.35,54.35,0,0,1-16.37-39.78q0-23.85,16.37-40.6t41-16.7a54.7,54.7,0,0,1,40.21,16.7Q-4031.47-990.07-4031.43-966.21Zm688.07-42.44v87h-548.73v-87Z" transform="translate(6085.56 4640.12)"/><path class="cls-5" d="M-3368.53-1555.1q38,62.61,38,148.57,0,116.16-76.39,187.52t-198,71.36q-135.6,0-217.85-76.9T-3905-1429.9q0-71.6,26.81-126.25h90q-42.89,60.51-42.87,129.46,0,83.3,60.28,136.62t158.37,53.3q96.42,0,152.17-50.14t55.75-134.47q0-71.08-47.72-133.72Z" transform="translate(6085.56 4640.12)"/><path class="cls-5" d="M-3343.36-2075.53v87h-85.76v2.11q98.64,56.78,98.63,167.12,0,81.15-43.41,127t-115.23,45.88q-153.76,0-179-179.3l-23-162.86q-139.89,0-139.86,111.93,0,98.16,67.51,177.18h-90Q-3905-1779.48-3905-1884q0-191.52,204.72-191.51Zm-277.61,87,18.24,131q8.58,60.45,30.28,91.23t76.88,30.77q40.21,0,65.65-28.39t25.48-75.59q0-64.68-45.81-106.91t-116-42.15Z" transform="translate(6085.56 4640.12)"/><path class="cls-4" d="M682.72-4640.12c-3738,0-6768.28,1826.22-6768.28,4079s3030.26,4079,6768.28,4079S7451,1691.62,7451-561.14,4420.74-4640.12,682.72-4640.12Zm-5.49,8003.55c-3641.56,0-6593.63-1757.09-6593.63-3924.57S-2964.33-4485.71,677.23-4485.71,7270.86-2728.62,7270.86-561.14,4318.79,3363.43,677.23,3363.43Z" transform="translate(6085.56 4640.12)"/><path class="cls-6" d="M679.94-4293.64c-3517.71,0-6369.39,1672.11-6369.39,3734.78S-2837.77,3175.91,679.94,3175.91,7049.33,1503.79,7049.33-558.86,4197.66-4293.64,679.94-4293.64ZM668.8,2925c-3364,0-6091-1559.78-6091-3483.86s2727-3483.87,6091-3483.87,6091,1559.78,6091,3483.87S4032.78,2925,668.8,2925Z" transform="translate(6085.56 4640.12)"/><text class="cls-7" transform="translate(6586.8 5567.81)">CMO IPS S.A.S</text></svg>